<?xml version="1.0" encoding="UTF-8"?><svg xmlns="http://www.w3.org/2000/svg" xmlns:xlink="http://www.w3.org/1999/xlink" viewBox="0 0 1000 500"><defs><style>.cls-1{fill:#9b9c9d;font-size:68.67px;}.cls-1,.cls-2,.cls-3{font-family:Frank;font-weight:300;}.cls-2{fill:#416184;font-size:34.02px;}.cls-4{stroke-linecap:round;stroke-width:1px;}.cls-4,.cls-5,.cls-3,.cls-6,.cls-7,.cls-8,.cls-9,.cls-10{stroke-miterlimit:10;}.cls-4,.cls-6{stroke:#385472;}.cls-4,.cls-6,.cls-7,.cls-8,.cls-9{fill:none;}.cls-5{fill:#2d425f;stroke:#2d425f;}.cls-5,.cls-3,.cls-10{stroke-width:.36px;}.cls-3{font-size:28.35px;stroke:#856743;}.cls-3,.cls-11{fill:#856743;}.cls-7{stroke:#383d42;}.cls-8{stroke:#de4c33;}.cls-9{stroke-width:1.22px;}.cls-9,.cls-10{stroke:#000;}.cls-12,.cls-13,.cls-14,.cls-15,.cls-16,.cls-17,.cls-18,.cls-19,.cls-11,.cls-20{stroke-width:0px;}.cls-13{fill:#513148;}.cls-14{fill:#a2a3a4;}.cls-15{fill:#383d42;}.cls-16{fill:#385472;}.cls-17{fill:#0f1a23;}.cls-18{fill:#223145;}.cls-19{fill:#de4c33;}.cls-20{fill:#fff;}</style></defs><g id="background"><rect class="cls-12" width="1000" height="503.1"/></g><g id="_5_sleepy"><path class="cls-17" d="m690.99,438.52c-.09-4.03.28-7.71-2.02-11.11-2.03-2.84-6.5-3.24-10.05-3.8-21.41-3.28-42.82-6.62-64.31-9.45-21.04-3.08-42.1-6.19-63.17-8.54-7.9-.99-15.98-1.6-23.84-3.08-.32-.09-1.05-.36-1.12-.94v-.92c0-.47.38-.87.86-.86,1.77.03,3.69.21,5.54.4,9.89,1.07,19.92,2.06,29.88,3.44,40.69,5.13,81.36,12.11,122.03,17.26.05,0,.1,0,.16,0,7.2-.14,5.85-9.49,6.05-14.6.08-8.43-.65-14.03-9.43-15.15-14.21-2.18-28.64-3.91-42.82-6.47-14.27-2.09-28.78-3.85-43.05-6.09-19.43-2.77-38.95-5.13-58.39-7.67-9.53-.91-19.1-1.52-28.63-2.33-13.97-1.15-14.71,8.57-14.29,19.91.17,11.16,0,22.33-.26,33.49-.04,6.17-.54,13.79,4.36,18.25,6.01,5,15.69,4.18,23.3,4.74.02,0,.03,0,.05,0,15.75.14,31.37-.03,47.11,1.46,36.26,3.24,72.44,6.15,108.72,8.85,5.31.32,12.05.84,12.84-5.58.61-2.86.49-7.08.5-11.23Z"/><path class="cls-14" d="m507.62,461.95c-.88-.16-1.78-.28-2.67-.33-1.29-.07-2.59-.15-3.88-.24-1.61-.11-3.41-.23-5.28-.36-3.38-.25-6.76-.49-10.13-.7-.93-.06-1.79-.11-2.55-.16,0,0-.01,0-.02,0-1-.05-1.81-.27-1.75-.92.04-.44.6-.66,1.54-.64,6.11.19,14.71.62,18.8.6,1.14,0,2.47-.13,2.53-1.58.05-1.23-1.17-1.49-2.18-1.66-.88-.16-1.78-.28-2.67-.33-5.12-.27-17.73-1.25-22.86-1.51-1.71-.14-7.45.09-5.46-1,3.6-1.09,7.21-1.68,10.79-2.45,1.52-.32,3.45-.89,3.16-2.84-.25-1.65-2.16-1.31-3.43-1.31-8.99,0-17.89.72-26.5,3.6-1.97.66-3.13,1.92-3.56,4.03-1.02,5.1-1.16,10.23-1.25,15.4-.06,3.57,1.46,4.94,4.82,5.75,9.92,2.41,19.47,1.75,29.52,2.11.39.01.75.02,1.09.02,4.77.19,9.66.38,12.45.37,1.14,0,2.47-.13,2.53-1.58.05-1.23-1.17-1.49-2.18-1.66-.88-.16-1.78-.28-2.67-.33-1.89-.1-4.8-.29-7.97-.51-.9-.07-1.83-.14-2.86-.21-.92-.06-1.73-.49-1.79-1.02-.09-.87.55-1.5,1.54-1.45.03,0,.06,0,.09,0,.27.01.48.02.67.01,6.07.15,16.15.68,20.68.65,1.14,0,2.47-.13,2.53-1.58.05-1.23-1.17-1.49-2.18-1.66-.88-.16-1.78-.28-2.67-.33l-12.34-.73c-7.7-.32-8.54-.54-8.89-1.33-.45-1.75,4.53-1.48,5.22-1.51,6.13.18,15.2.64,19.43.62,1.14,0,2.47-.13,2.53-1.58.05-1.23-1.17-1.49-2.18-1.66Z"/><path class="cls-6" d="m489.36,398.53v-.14c-.05-5.08.04-12.6-.01-17.25.22-9.23-.9-14.49-11.52-14.23-21.35-.76-42.72-.8-64.06-.46-23.94-.19-47.89,1.25-71.43,5.86-9.74,1.95-18.98,5.53-27.51,10.62-.87.42-1.68.9-2.41,1.45-4.87,5.11-6.46,11.64-7.79,18.43-.62,3.16-1.15,6.34-1.65,9.52-.4,2.52-.85,5.03-1.3,7.54-.37,2.06-.91,4.08-.95,6.18-.03.25-.09.48-.17.68-.63,9.28,3.85,13.88,11.14,18.99,5.86,3.88,12.26,6.6,18.47,9.62,3.66,1.81,8.32,2.74,12.42,4.08,22.87,7.21,46.76,10.38,70.46,13.38,9.35.76,18.64.29,27.9,2.14,4.34.74,5.06-2.49,5.31-6.12.5-5.65.92-10.17,1.45-15.78.45-3.18.14-6.17-3.49-6.91-9.48-2.64-18.66-6.23-28.34-7.96-22.5-4.61-44.17-12.66-66.19-19.06-3.68-1.12-7.35-2.32-11.01-3.42-1.5-.87-14.28-2.49-11.62-5.19.71-.33,1.4-.22,2.19-.11,2.62.46,6.82,1.25,9.22,1.69.14.03.27.06.41.09,30.29,8.16,60.1,18.79,90.94,24.77.13.03.26.06.39.09,4.32,1.21,8.69,2.61,13.07,3.84,2.26.64,4.58,1.07,6.93,1.23,7.94.56,17.04.55,24.54,1.02,11.04.55,12.72-.32,14.14-11.79,1.14-10.86.28-21.92.47-32.8Z"/><path class="cls-14" d="m307.05,384.04c-2.82,0-5.91.05-8.65.18-2.26.27-3.73-.04-3.2-2.84.52-4.5,1.27-9.19.81-13.74-.99-7.12-10.17-5.81-15.46-5.33-3.16.39-2.81,4.23-3.32,6.67-.38,1.91-1.85,2.1-2.28.19-.35-3.24-.36-8.4-4.44-8.65-2.13-.22-4.29,1.08-6.39.46h0c-4.93-1.95-6.34-9.22-12.53-4.55-4.34,2.59-8.28,6.69-13.26,7.82-1.81.37-3.73.24-5.58.22-5.11-.13-9.66,1.52-14.41,4.07-1.77.68-3.53,2.87-5.33,2.61h0c-1.12-.41-2.39-2.26-3.93-1.36-14.2,11.83-13.03,38.51-2.15,52.32,7.36,8.9,15.77,13.04,30.56,13.76,6.59.47,12.27-.91,18.43-4.77,3.11-2.03,6.39-4.38,8.74-7.01,3.03-2.93,6.42-7.8,11.04-6.24l20.53,5.07c.94.23,1.89-.37,2.07-1.33s.39-2,.57-3c.5-2.83,1.01-5.65,1.45-8.49.61-3.86,1.27-7.71,2.13-11.53.78-3.46,1.69-6.89,3.33-10.06.57-1.11,1.23-2.15,1.95-3.13.41-.56.02-1.36-.68-1.36Z"/></g><g id="_5a_cpr"><a xlink:href="cpr_group"><path class="cls-14" d="m377.96,312.17c2.55,2.76,4.67,5.75,6.93,8.63.96,1.23,2.31,2.71,3.93,1.6,1.37-.94.23-2.51-.33-3.65-3.94-8.08-8.48-15.77-14.83-22.25-1.46-1.49-3.09-1.98-5.18-1.43-5.03,1.31-9.71,3.44-14.4,5.62-3.23,1.5-3.8,3.48-3.06,6.85,2.17,9.97,6.95,18.28,11.02,27.47.16.36.31.68.46.99,1.92,4.37,3.88,8.85,5.12,11.35.5,1.02,1.2,2.16,2.52,1.58,1.12-.49.82-1.7.54-2.68-.25-.86-.52-1.72-.87-2.55-.74-1.74-1.84-4.44-3.03-7.4-.33-.84-.68-1.7-1.07-2.66-.34-.85-.32-1.77.14-2.06.74-.46,1.59-.16,1.98.75.01.03.03.06.04.08.1.25.2.44.28.61,2.52,5.53,6.46,14.82,8.46,18.88.5,1.02,1.2,2.16,2.52,1.58,1.12-.49.82-1.7.54-2.68-.25-.86-.52-1.72-.87-2.55l-4.74-11.42c-3.08-7.07-3.26-7.92-2.69-8.57,1.37-1.17,3.32,3.42,3.65,4.03,2.52,5.59,6.07,13.95,7.95,17.74.5,1.02,1.2,2.16,2.52,1.58,1.12-.49.82-1.7.54-2.68-.25-.86-.52-1.72-.87-2.55-.51-1.19-1-2.4-1.49-3.6-.61-1.49-1.29-3.17-1.99-4.91-1.26-3.15-2.52-6.29-3.81-9.42-.35-.87-.68-1.66-.97-2.36,0,0,0-.01,0-.02-.39-.92-.55-1.75.06-1.97.42-.15.86.25,1.25,1.1,2.5,5.57,5.88,13.5,7.69,17.17.5,1.02,1.2,2.16,2.52,1.58,1.12-.49.82-1.7.54-2.68-.25-.86-.52-1.72-.87-2.55-2-4.72-6.64-16.49-8.65-21.21-.62-1.6-3.34-6.66-1.49-5.35Z"/><path class="cls-17" d="m441.75,254.79c-1.04-3.26-1.96-10.76-5.41-11.52-3.87.3-6.01,12.08-7.54,15.51-3.38,9.46-6.73,18.93-10.09,28.39-2.33,6.21-4.86,12.36-7.48,18.46-2.07,4.72-4.57,9.57-4.72,14.8-.2,4.92,1.55,9.72,3.41,14.21,3.9,9.47,11,18.51,21.96,18.65h.16c6.49.2,13.45-2.36,17.51-7.4,7.91-10.02,2.93-29.33,1.51-41.25-2.39-16.72-5.41-33.36-9.31-49.85Z"/><path class="cls-17" d="m333.25,287.18c-3.36-9.46-6.71-18.93-10.09-28.39-1.53-3.43-3.67-15.22-7.54-15.51-3.45.75-4.37,8.26-5.41,11.52-3.9,16.49-6.92,33.13-9.31,49.85-1.42,11.92-6.4,31.23,1.51,41.25,4.05,5.04,11.01,7.61,17.51,7.41h.16c10.96-.14,18.06-9.19,21.96-18.65,1.86-4.5,3.61-9.29,3.41-14.21-.14-5.22-2.65-10.07-4.72-14.8-2.61-6.1-5.15-12.24-7.48-18.46Z"/><path class="cls-14" d="m385.55,100.55c5.69-4.34,10.19-10.57,13.02-17.18,4.04-9.31,3.59-18.64,3.57-28.77-.03-2.66-.1-5.42-.42-8.02l-.02-.19c-3.61-28.85-51.77-27.82-53.89,1.05-.6,10.98-.99,22.65,2.79,33.16,4.57,13.89,20.1,31.51,34.95,19.93Z"/><path class="cls-14" d="m397.11,321.81c2.39-5.2,4.55-10.45,5.82-16.28.74-3.38.17-5.35-3.06-6.85-4.69-2.18-9.37-4.31-14.4-5.62-2.09-.55-3.73-.05-5.18,1.43-.56.57-1.09,1.17-1.63,1.76,0,0,0,0,0,0-.98,1.43,4.04,6.17,6.18,9.37.73,1.08,1.44,2.16,2.11,3.27.44.67.87,1.35,1.31,2.02,2.38,3.57,4.54,7.61,7.22,11.07.44.57,1.33.48,1.63-.17Z"/><path class="cls-16" d="m449.21,111.33l-.14-.14c-8.96-8.25-19.86-14.33-30.71-19.68-7.59-3.6-14.11-4.8-19.24,3.16-7.56,10.95-20.73,24.48-34.28,14.15-5.08-3.52-9.34-7.9-12.65-12.68-5.86-9.53-12.73-8.23-21.63-3.46-1.96,1.04-3.92,2.09-5.88,3.15h0c-7.53,4.09-14.99,8.45-21.49,14-7.13,5.87-11.45,14.37-10.17,23.78,2,13.87,5.48,27.54,9.53,40.93,7.9,27.91,17.88,55.09,26.94,82.65,3.26,10,7.38,19.72,11.03,29.56.77,2.08,1.56,4.27,2.64,6.19,3.04,5.94,8.79,4.45,13.54,1.93,4.22-2.05,8.79-3.97,10.21-7.47,1.23-2.67.41-6.32-.47-9.16-1.08-3.5-2.27-7.02-3.12-10.55-1.55-6.13-2.39-12.45-3.83-18.59-1.51-6.55-3.72-12.9-5.2-19.45-6.02-26.01-12.95-51.87-19.42-77.76-1.08-5-3.72-10-3.02-15.14.45-1.52,1.13-1.78,1.85-1.37h0c.17.09.33.22.5.38.01.01.02.02.03.03.16.16.33.34.49.54,0,.01.02.02.03.04.16.2.32.42.47.66,0,0,.01.02.02.02.16.24.3.49.45.74.01.02.02.04.03.06.14.25.28.51.4.77,0,0,0,.02.01.03.12.25.24.5.34.75,0,.01.01.03.02.04.1.24.19.47.27.68,0,.02.01.03.02.05.07.21.14.41.18.59.76,2.5,1.51,5.01,2.24,7.51.17.59.34,1.17.51,1.76.56,1.92,1.11,3.85,1.66,5.78.19.66.37,1.32.55,1.98.52,1.86,1.04,3.73,1.56,5.6.13.48.26.96.39,1.44.56,2.06,1.12,4.12,1.68,6.19,0,0,0,.01,0,.02,2.72,10.12,5.36,20.28,8.08,30.43,1.45,5.06,2.78,12.27,7.74,14.39,3.18.98,6.46.54,9.88.51,2.62-.02,6.91-.05,9.53-.07,5.09-.07,7.86.17,10.13-1.9.9-.82,1.63-1.79,2.29-2.83,1.01-1.59,1.76-3.33,2.29-5.14,6.23-21.2,12.18-42.64,18.35-63.99.56-1.93,1.42-4.38,2.47-5.78.13-.19.26-.35.39-.49.02-.03.05-.05.07-.07.1-.11.2-.21.3-.29.02-.01.03-.02.05-.03.1-.08.2-.16.3-.21,0,0,0,0,.01,0,.1-.06.2-.09.3-.12h0c1.05-.24,1.54,1.52,1.48,3.09,0,2.84-.93,5.8-1.69,8.58-5.42,20.05-11.54,39.95-15.96,60.26-3.12,13.09-6.93,26.12-10.11,39.21-2.28,9.16-4.37,17.84-6.56,27.26-.95,4.07-1.84,9.06.73,12.49,2.09,2.98,6.34,4.61,10.26,6.3,4.84,2.21,10.61,3.57,13.6-2.32,11.21-24.96,18.47-50.25,26.82-76.55,6.91-21.26,13.09-42.7,18.52-64.37,3.26-13.67,5.95-27.36-5.57-38.07Z"/><circle class="cls-19" cx="383.54" cy="383.55" r="6.5"/><path class="cls-19" d="m34.2,298.32v-23.82h10.65c1.75,0,3.24.62,4.48,1.86,1.24,1.24,1.86,2.72,1.89,4.43v11.23c-.02,1.73-.65,3.21-1.89,4.44-1.23,1.23-2.73,1.85-4.48,1.85h-10.65Zm1.68-1.66h8.97c1.27,0,2.38-.46,3.3-1.38.93-.92,1.4-2.03,1.4-3.32v-11.09c0-1.3-.46-2.4-1.4-3.31-.93-.91-2.03-1.37-3.3-1.37h-8.97v20.48Z"/><path class="cls-19" d="m54.25,298.32v-23.82h16.16v1.68h-14.48v9.38h10.85v1.69h-10.85v9.4h14.48v1.66h-16.16Z"/><path class="cls-19" d="m73.8,298.32v-23.82h10.73c1.15,0,2.18.26,3.09.79.91.53,1.59,1.2,2.06,2.03.47.83.81,1.74,1.02,2.75.22,1.01.21,2.01-.02,3.01-.23,1-.57,1.92-1.04,2.74-.46.83-1.15,1.5-2.04,2.02-.9.52-1.92.78-3.07.78h-9.05v9.7h-1.68Zm1.68-11.39h9.05c.84,0,1.59-.2,2.26-.6.66-.4,1.17-.91,1.53-1.54.35-.63.61-1.33.76-2.09.16-.76.16-1.53,0-2.28-.16-.76-.41-1.46-.76-2.09-.35-.64-.87-1.15-1.54-1.54-.67-.39-1.42-.59-2.25-.59h-9.05v10.75Z"/><path class="cls-19" d="m100.15,298.32v-22.14h-7.66v-1.68h17.01v1.68h-7.66v22.14h-1.69Z"/><path class="cls-19" d="m111.86,298.32v-23.82h1.68v11.06h13.67v-11.06h1.66v23.82h-1.66v-11.06h-13.67v11.06h-1.68Z"/><path class="cls-5" d="m42.07,59.02c-1.29,0-2.39-.46-3.31-1.38s-1.38-2.02-1.38-3.31v-8.47c0-1.29.46-2.39,1.38-3.31.92-.92,2.02-1.38,3.31-1.38h3.16c1.29,0,2.39.46,3.31,1.38s1.38,2.02,1.38,3.31h-1.22c0-.96-.34-1.77-1.02-2.44-.68-.67-1.49-1.01-2.45-1.01h-3.16c-.95,0-1.77.34-2.44,1.01s-1.01,1.49-1.01,2.44v8.47c0,.96.34,1.77,1.02,2.45s1.49,1.02,2.44,1.02h3.16c.95,0,1.77-.34,2.45-1.02s1.02-1.49,1.02-2.45h1.22c0,1.29-.46,2.39-1.38,3.31s-2.02,1.38-3.31,1.38h-3.16Z"/><path class="cls-5" d="m52.16,58.82v-17.55h7.91c.85,0,1.61.19,2.28.58.67.39,1.18.89,1.52,1.49s.59,1.28.75,2.03.15,1.48-.01,2.22c-.17.74-.42,1.41-.77,2.02s-.84,1.1-1.51,1.49c-.66.38-1.42.58-2.26.58h-6.67v7.15h-1.24Zm1.24-8.4h6.67c.62,0,1.18-.15,1.67-.44.49-.29.86-.67,1.13-1.14s.45-.98.56-1.54c.11-.56.11-1.12,0-1.68s-.3-1.07-.56-1.54-.64-.85-1.13-1.14c-.49-.29-1.05-.43-1.66-.43h-6.67v7.92Z"/><path class="cls-5" d="m66.69,58.82v-17.55h7.82c1.18,0,2.18.35,2.99,1.06.81.71,1.31,1.58,1.49,2.61s.18,2.05-.02,3.07c-.2,1.02-.73,1.89-1.58,2.6-.85.71-1.9,1.07-3.13,1.07l5.01,7.15h-1.44l-4.97-7.15h-4.93v7.15h-1.24Zm1.24-8.4h6.08c1.62,0,2.77-.66,3.44-1.98.67-1.32.71-2.64.13-3.96-.58-1.32-1.61-1.98-3.07-1.98h-6.59v7.92Z"/><rect class="cls-13" x="65.53" y="318.88" width="32" height="4"/><rect class="cls-15" x="65.53" y="448.88" width="32" height="4"/><rect class="cls-15" x="65.53" y="435.88" width="32" height="4"/><rect class="cls-15" x="65.53" y="422.88" width="32" height="4"/><rect class="cls-15" x="65.53" y="409.88" width="32" height="4"/><rect class="cls-13" x="65.53" y="396.88" width="32" height="4"/><rect class="cls-13" x="65.53" y="383.88" width="32" height="4"/><rect class="cls-13" x="65.53" y="370.88" width="32" height="4"/><rect class="cls-13" x="65.53" y="357.88" width="32" height="4"/><rect class="cls-13" x="65.53" y="344.88" width="32" height="4"/><rect class="cls-13" x="65.53" y="331.88" width="32" height="4"/></a></g><g id="_5a_cpr_msg_good_comp"><a xlink:href="cpr_msg_good_compresson"><rect class="cls-19" x="548.01" y="227.55" width="345.34" height="44.89"/><path class="cls-10" d="m575.3,261.71c-1.75,0-3.25-.62-4.49-1.87-1.25-1.25-1.87-2.74-1.87-4.49v-11.49c0-1.75.63-3.25,1.88-4.49s2.75-1.87,4.48-1.87h4.29c1.79,0,3.3.6,4.53,1.8,1.22,1.2,1.83,2.78,1.83,4.73h-1.66c0-1.52-.45-2.7-1.35-3.56-.9-.86-2.02-1.29-3.36-1.29h-4.29c-1.29,0-2.4.46-3.31,1.37-.91.91-1.37,2.02-1.37,3.31v11.49c0,1.29.46,2.4,1.38,3.32.92.92,2.02,1.38,3.3,1.38h4.29c1.3,0,2.4-.46,3.32-1.38.92-.92,1.38-2.03,1.38-3.32v-3.32h-6.2v-1.71h7.86v5.03c0,1.75-.62,3.25-1.87,4.49-1.25,1.25-2.74,1.87-4.49,1.87h-4.29Z"/><path class="cls-10" d="m594.66,261.71c-1.75,0-3.25-.62-4.49-1.87-1.25-1.25-1.87-2.74-1.87-4.49l.03-11.49c0-1.77.62-3.27,1.84-4.51,1.23-1.23,2.72-1.85,4.48-1.85h6c1.73,0,3.22.61,4.48,1.84,1.26,1.22,1.88,2.7,1.88,4.43v11.63c0,1.75-.62,3.24-1.87,4.48-1.25,1.24-2.74,1.85-4.49,1.85h-6Zm0-1.66h6c1.3,0,2.4-.46,3.31-1.38.91-.92,1.37-2.03,1.37-3.32v-11.43c0-1.34-.46-2.47-1.39-3.38s-2.02-1.37-3.3-1.37h-6c-1.27,0-2.37.46-3.28,1.39-.91.92-1.37,2.02-1.37,3.3l-.03,11.49c0,1.29.46,2.4,1.37,3.32.91.92,2.02,1.38,3.31,1.38Z"/><path class="cls-10" d="m615.74,261.71c-1.75,0-3.25-.62-4.49-1.87-1.25-1.25-1.87-2.74-1.87-4.49l.03-11.49c0-1.77.62-3.27,1.84-4.51,1.23-1.23,2.72-1.85,4.48-1.85h6c1.73,0,3.22.61,4.48,1.84,1.26,1.22,1.88,2.7,1.88,4.43v11.63c0,1.75-.62,3.24-1.87,4.48-1.25,1.24-2.74,1.85-4.49,1.85h-6Zm0-1.66h6c1.3,0,2.4-.46,3.31-1.38.91-.92,1.37-2.03,1.37-3.32v-11.43c0-1.34-.46-2.47-1.39-3.38-.92-.91-2.02-1.37-3.3-1.37h-6c-1.27,0-2.37.46-3.28,1.39-.91.92-1.37,2.02-1.37,3.3l-.03,11.49c0,1.29.46,2.4,1.37,3.32.91.92,2.02,1.38,3.31,1.38Z"/><path class="cls-10" d="m631.14,261.44v-23.82h10.65c1.75,0,3.24.62,4.48,1.86,1.24,1.24,1.86,2.72,1.89,4.43v11.23c-.02,1.73-.65,3.21-1.89,4.44-1.23,1.24-2.73,1.85-4.48,1.85h-10.65Zm1.68-1.66h8.97c1.27,0,2.38-.46,3.3-1.38.93-.92,1.4-2.03,1.4-3.32v-11.1c0-1.3-.46-2.4-1.4-3.31-.93-.91-2.03-1.37-3.3-1.37h-8.97v20.48Z"/><path class="cls-10" d="m666.73,261.71c-1.75,0-3.25-.62-4.49-1.87-1.25-1.25-1.87-2.74-1.87-4.49v-11.49c0-1.75.63-3.25,1.88-4.49,1.25-1.25,2.75-1.87,4.48-1.87h4.29c1.75,0,3.25.62,4.49,1.87,1.25,1.25,1.87,2.74,1.87,4.49h-1.66c0-1.3-.46-2.4-1.38-3.31s-2.03-1.37-3.32-1.37h-4.29c-1.29,0-2.4.46-3.31,1.37-.91.91-1.37,2.02-1.37,3.31v11.49c0,1.29.46,2.4,1.38,3.32.92.92,2.02,1.38,3.3,1.38h4.29c1.29,0,2.4-.46,3.32-1.38.92-.92,1.38-2.03,1.38-3.32h1.66c0,1.75-.62,3.25-1.87,4.49-1.25,1.25-2.74,1.87-4.49,1.87h-4.29Z"/><path class="cls-10" d="m686.1,261.71c-1.75,0-3.25-.62-4.49-1.87-1.25-1.25-1.87-2.74-1.87-4.49l.03-11.49c0-1.77.62-3.27,1.84-4.51,1.23-1.23,2.72-1.85,4.48-1.85h6c1.73,0,3.22.61,4.48,1.84,1.26,1.22,1.88,2.7,1.88,4.43v11.63c0,1.75-.62,3.24-1.87,4.48-1.25,1.24-2.74,1.85-4.49,1.85h-6Zm0-1.66h6c1.3,0,2.4-.46,3.31-1.38.91-.92,1.37-2.03,1.37-3.32v-11.43c0-1.34-.46-2.47-1.39-3.38-.92-.91-2.02-1.37-3.3-1.37h-6c-1.27,0-2.37.46-3.28,1.39-.91.92-1.37,2.02-1.37,3.3l-.03,11.49c0,1.29.46,2.4,1.37,3.32.91.92,2.02,1.38,3.31,1.38Z"/><path class="cls-10" d="m701.5,261.44v-23.82h1.29l8.92,13.07,8.94-13.07h1.26v23.82h-1.66v-20.41l-7.82,11.49h-1.43l-7.82-11.53v20.45h-1.68Z"/><path class="cls-10" d="m725.46,261.44v-23.82h10.73c1.15,0,2.18.26,3.09.79.91.53,1.59,1.2,2.06,2.03.47.83.81,1.74,1.02,2.75.22,1.01.21,2.01-.02,3.01-.23,1-.57,1.92-1.04,2.74-.46.83-1.15,1.5-2.04,2.02-.9.52-1.92.78-3.07.78h-9.05v9.7h-1.68Zm1.68-11.39h9.05c.84,0,1.59-.2,2.26-.6.66-.4,1.17-.91,1.53-1.54.35-.63.61-1.33.76-2.09s.16-1.52,0-2.28c-.16-.76-.41-1.46-.76-2.09-.35-.64-.87-1.15-1.54-1.54s-1.42-.59-2.25-.59h-9.05v10.75Z"/><path class="cls-10" d="m745.18,261.44v-23.82h10.61c1.61,0,2.96.48,4.06,1.45s1.78,2.14,2.03,3.54.24,2.79-.03,4.17c-.27,1.38-.99,2.56-2.14,3.52-1.16.96-2.57,1.45-4.24,1.45l6.79,9.7h-1.96l-6.74-9.7h-6.69v9.7h-1.68Zm1.68-11.39h8.25c2.2,0,3.76-.9,4.67-2.69.91-1.79.97-3.58.17-5.37-.79-1.79-2.18-2.68-4.16-2.68h-8.94v10.75Z"/><path class="cls-10" d="m765.57,261.44v-23.82h16.16v1.68h-14.48v9.38h10.85v1.69h-10.85v9.4h14.48v1.66h-16.16Z"/><path class="cls-10" d="m784.11,255.15h1.68c0,1.52.45,2.71,1.34,3.57.9.86,2.01,1.3,3.34,1.3h4.29c.3,0,.66-.04,1.1-.13.43-.09,1.01-.27,1.74-.53.72-.27,1.33-.75,1.82-1.45s.73-1.56.73-2.59c0-1.08-.29-1.99-.86-2.72-.58-.72-1.32-1.26-2.24-1.62-.92-.35-1.94-.66-3.06-.91s-2.24-.5-3.36-.76c-1.11-.26-2.13-.58-3.05-.96-.92-.38-1.67-.97-2.24-1.77-.58-.8-.86-1.77-.86-2.92,0-1.82.61-3.3,1.83-4.44s2.62-1.72,4.18-1.72h4.29c1.79,0,3.3.6,4.53,1.8,1.22,1.2,1.84,2.78,1.84,4.73h-1.66c0-1.52-.45-2.7-1.35-3.56-.9-.86-2.01-1.29-3.35-1.29h-4.29c-1.09,0-2.08.41-2.99,1.22-.91.81-1.36,1.87-1.36,3.16,0,.97.29,1.77.87,2.38.58.61,1.33,1.06,2.25,1.35s1.94.54,3.06.76c1.12.22,2.23.47,3.35.76,1.11.29,2.13.68,3.05,1.15.92.48,1.67,1.21,2.24,2.19.58.99.86,2.19.86,3.62,0,1.71-.68,3.12-2.03,4.24s-3.03,1.68-5.01,1.68h-4.29c-1.79,0-3.3-.6-4.53-1.8-1.22-1.2-1.83-2.78-1.83-4.73Z"/><path class="cls-10" d="m804.84,255.15h1.68c0,1.52.45,2.71,1.34,3.57.9.86,2.01,1.3,3.34,1.3h4.29c.3,0,.66-.04,1.1-.13.43-.09,1.01-.27,1.74-.53.72-.27,1.33-.75,1.82-1.45s.73-1.56.73-2.59c0-1.08-.29-1.99-.86-2.72-.58-.72-1.32-1.26-2.24-1.62-.92-.35-1.94-.66-3.06-.91s-2.24-.5-3.36-.76c-1.11-.26-2.13-.58-3.05-.96-.92-.38-1.67-.97-2.24-1.77-.58-.8-.86-1.77-.86-2.92,0-1.82.61-3.3,1.83-4.44s2.62-1.72,4.18-1.72h4.29c1.79,0,3.3.6,4.53,1.8,1.22,1.2,1.84,2.78,1.84,4.73h-1.66c0-1.52-.45-2.7-1.35-3.56-.9-.86-2.01-1.29-3.35-1.29h-4.29c-1.09,0-2.08.41-2.99,1.22-.91.81-1.36,1.87-1.36,3.16,0,.97.29,1.77.87,2.38.58.61,1.33,1.06,2.25,1.35s1.94.54,3.06.76c1.12.22,2.23.47,3.35.76,1.11.29,2.13.68,3.05,1.15.92.48,1.67,1.21,2.24,2.19.58.99.86,2.19.86,3.62,0,1.71-.68,3.12-2.03,4.24s-3.03,1.68-5.01,1.68h-4.29c-1.79,0-3.3-.6-4.53-1.8-1.22-1.2-1.83-2.78-1.83-4.73Z"/><path class="cls-10" d="m826.43,261.44v-23.82h1.63v23.82h-1.63Z"/><path class="cls-10" d="m837.97,261.71c-1.75,0-3.25-.62-4.49-1.87-1.25-1.25-1.87-2.74-1.87-4.49l.03-11.49c0-1.77.62-3.27,1.84-4.51,1.23-1.23,2.72-1.85,4.48-1.85h6c1.73,0,3.22.61,4.48,1.84,1.26,1.22,1.88,2.7,1.88,4.43v11.63c0,1.75-.62,3.24-1.87,4.48-1.25,1.24-2.74,1.85-4.49,1.85h-6Zm0-1.66h6c1.3,0,2.4-.46,3.31-1.38.91-.92,1.37-2.03,1.37-3.32v-11.43c0-1.34-.46-2.47-1.39-3.38-.92-.91-2.02-1.37-3.3-1.37h-6c-1.27,0-2.37.46-3.28,1.39-.91.92-1.37,2.02-1.37,3.3l-.03,11.49c0,1.29.46,2.4,1.37,3.32.91.92,2.02,1.38,3.31,1.38Z"/><path class="cls-10" d="m853.37,261.44v-23.82h1.29l15.35,20.7.07-20.7h1.66v23.82h-1.36l-15.33-20.58v20.58h-1.68Z"/></a></g><g id="_5a_cpr_msg_push_harder"><a xlink:href="cpr_msg_push_harder"><rect class="cls-19" x="548.01" y="227.55" width="345.34" height="44.89"/><path class="cls-10" d="m615.69,261.44v-23.82h10.73c1.15,0,2.18.26,3.09.79.91.53,1.6,1.2,2.06,2.03.46.83.8,1.74,1.02,2.75.21,1.01.21,2.01-.02,3.01-.23,1-.57,1.92-1.04,2.74-.46.83-1.15,1.5-2.04,2.02-.9.52-1.92.78-3.07.78h-9.05v9.7h-1.68Zm1.68-11.39h9.05c.84,0,1.59-.2,2.26-.6.66-.4,1.17-.91,1.53-1.54.35-.63.61-1.33.76-2.09.15-.76.15-1.52,0-2.28-.16-.76-.41-1.46-.76-2.09-.36-.64-.87-1.15-1.54-1.54s-1.42-.59-2.25-.59h-9.05v10.75Z"/><path class="cls-10" d="m641.09,261.71c-1.75,0-3.25-.62-4.49-1.87-1.25-1.25-1.87-2.74-1.87-4.49l.05-17.72h1.66l-.03,17.72c0,1.29.46,2.4,1.38,3.32.92.92,2.02,1.38,3.3,1.38h4.3c1.52,0,2.68-.44,3.48-1.33.8-.89,1.2-2.01,1.2-3.37v-17.72h1.66v17.76c0,1.82-.55,3.32-1.66,4.53-1.11,1.2-2.67,1.8-4.68,1.8h-4.3Z"/><path class="cls-10" d="m655.12,255.15h1.68c0,1.52.45,2.71,1.34,3.57.9.86,2.01,1.3,3.34,1.3h4.29c.3,0,.66-.04,1.1-.13.43-.09,1.01-.27,1.74-.53.72-.27,1.33-.75,1.82-1.45s.73-1.56.73-2.59c0-1.08-.29-1.99-.86-2.72-.58-.72-1.32-1.26-2.24-1.62-.92-.35-1.94-.66-3.06-.91s-2.24-.5-3.36-.76c-1.11-.26-2.13-.58-3.05-.96-.92-.38-1.67-.97-2.24-1.77-.58-.8-.86-1.77-.86-2.92,0-1.82.61-3.3,1.83-4.44s2.62-1.72,4.18-1.72h4.29c1.79,0,3.3.6,4.53,1.8,1.22,1.2,1.84,2.78,1.84,4.73h-1.66c0-1.52-.45-2.7-1.35-3.56-.9-.86-2.01-1.29-3.35-1.29h-4.29c-1.09,0-2.08.41-2.99,1.22-.91.81-1.36,1.87-1.36,3.16,0,.97.29,1.77.87,2.38.58.61,1.33,1.06,2.25,1.35s1.94.54,3.06.76c1.12.22,2.23.47,3.35.76,1.11.29,2.13.68,3.05,1.15.92.48,1.67,1.21,2.24,2.19.58.99.86,2.19.86,3.62,0,1.71-.68,3.12-2.03,4.24s-3.03,1.68-5.01,1.68h-4.29c-1.79,0-3.3-.6-4.53-1.8-1.22-1.2-1.83-2.78-1.83-4.73Z"/><path class="cls-10" d="m675.85,261.44v-23.82h1.68v11.06h13.67v-11.06h1.66v23.82h-1.66v-11.06h-13.67v11.06h-1.68Z"/><path class="cls-10" d="m706.44,261.44v-23.82h1.68v11.06h13.67v-11.06h1.66v23.82h-1.66v-11.06h-13.67v11.06h-1.68Z"/><path class="cls-10" d="m727.62,261.44h-1.81l9.57-23.82h1.05l9.53,23.82h-1.81l-2.34-5.81h-11.88l-2.31,5.81Zm2.96-7.49h10.61l-5.3-13.39-5.32,13.39Z"/><path class="cls-10" d="m748.67,261.44v-23.82h10.61c1.61,0,2.96.48,4.06,1.45s1.78,2.14,2.03,3.54.24,2.79-.03,4.17c-.27,1.38-.99,2.56-2.14,3.52-1.16.96-2.57,1.45-4.24,1.45l6.79,9.7h-1.96l-6.74-9.7h-6.69v9.7h-1.68Zm1.68-11.39h8.25c2.2,0,3.76-.9,4.67-2.69.91-1.79.97-3.58.17-5.37-.79-1.79-2.18-2.68-4.16-2.68h-8.94v10.75Z"/><path class="cls-10" d="m769.06,261.44v-23.82h10.65c1.75,0,3.24.62,4.48,1.86,1.24,1.24,1.86,2.72,1.89,4.43v11.23c-.02,1.73-.65,3.21-1.89,4.44-1.23,1.24-2.73,1.85-4.48,1.85h-10.65Zm1.68-1.66h8.97c1.27,0,2.38-.46,3.3-1.38.93-.92,1.4-2.03,1.4-3.32v-11.1c0-1.3-.46-2.4-1.4-3.31-.93-.91-2.03-1.37-3.3-1.37h-8.97v20.48Z"/><path class="cls-10" d="m789.11,261.44v-23.82h16.16v1.68h-14.48v9.38h10.85v1.69h-10.85v9.4h14.48v1.66h-16.16Z"/><path class="cls-10" d="m808.66,261.44v-23.82h10.61c1.61,0,2.96.48,4.06,1.45s1.78,2.14,2.03,3.54.24,2.79-.03,4.17c-.27,1.38-.99,2.56-2.14,3.52-1.16.96-2.57,1.45-4.24,1.45l6.79,9.7h-1.96l-6.74-9.7h-6.69v9.7h-1.68Zm1.68-11.39h8.25c2.2,0,3.76-.9,4.67-2.69.91-1.79.97-3.58.17-5.37-.79-1.79-2.18-2.68-4.16-2.68h-8.94v10.75Z"/></a></g><g id="_5a_cpr_msg_start_cpr"><a xlink:href="cpr_msg_push_harder"><rect class="cls-19" x="548.01" y="227.55" width="345.34" height="44.89"/><path class="cls-10" d="m640.42,255.15h1.68c0,1.52.45,2.71,1.34,3.57.9.86,2.01,1.3,3.34,1.3h4.29c.3,0,.66-.04,1.1-.13.43-.09,1.01-.27,1.74-.53.72-.27,1.33-.75,1.82-1.45s.73-1.56.73-2.59c0-1.08-.29-1.99-.86-2.72-.58-.72-1.32-1.26-2.24-1.62-.92-.35-1.94-.66-3.06-.91s-2.24-.5-3.36-.76c-1.11-.26-2.13-.58-3.05-.96-.92-.38-1.67-.97-2.24-1.77-.58-.8-.86-1.77-.86-2.92,0-1.82.61-3.3,1.83-4.44s2.62-1.72,4.18-1.72h4.29c1.79,0,3.3.6,4.53,1.8,1.22,1.2,1.84,2.78,1.84,4.73h-1.66c0-1.52-.45-2.7-1.35-3.56-.9-.86-2.01-1.29-3.35-1.29h-4.29c-1.09,0-2.08.41-2.99,1.22-.91.81-1.36,1.87-1.36,3.16,0,.97.29,1.77.87,2.38.58.61,1.33,1.06,2.25,1.35s1.94.54,3.06.76c1.12.22,2.23.47,3.35.76,1.11.29,2.13.68,3.05,1.15.92.48,1.67,1.21,2.24,2.19.58.99.86,2.19.86,3.62,0,1.71-.68,3.12-2.03,4.24s-3.03,1.68-5.01,1.68h-4.29c-1.79,0-3.3-.6-4.53-1.8-1.22-1.2-1.83-2.78-1.83-4.73Z"/><path class="cls-10" d="m666.78,261.44v-22.14h-7.66v-1.68h17.01v1.68h-7.66v22.14h-1.69Z"/><path class="cls-10" d="m675.53,261.44h-1.81l9.57-23.82h1.05l9.53,23.82h-1.81l-2.34-5.81h-11.88l-2.31,5.81Zm2.96-7.49h10.61l-5.3-13.39-5.32,13.39Z"/><path class="cls-10" d="m696.58,261.44v-23.82h10.61c1.61,0,2.96.48,4.06,1.45s1.78,2.14,2.03,3.54.24,2.79-.03,4.17c-.27,1.38-.99,2.56-2.14,3.52-1.16.96-2.57,1.45-4.24,1.45l6.79,9.7h-1.96l-6.74-9.7h-6.69v9.7h-1.68Zm1.68-11.39h8.25c2.2,0,3.76-.9,4.67-2.69.91-1.79.97-3.58.17-5.37-.79-1.79-2.18-2.68-4.16-2.68h-8.94v10.75Z"/><path class="cls-10" d="m722.94,261.44v-22.14h-7.66v-1.68h17.01v1.68h-7.66v22.14h-1.69Z"/><path class="cls-10" d="m750.52,261.71c-1.75,0-3.25-.62-4.49-1.87-1.25-1.25-1.87-2.74-1.87-4.49v-11.49c0-1.75.63-3.25,1.88-4.49,1.25-1.25,2.75-1.87,4.48-1.87h4.29c1.75,0,3.25.62,4.49,1.87,1.25,1.25,1.87,2.74,1.87,4.49h-1.66c0-1.3-.46-2.4-1.38-3.31s-2.03-1.37-3.32-1.37h-4.29c-1.29,0-2.4.46-3.31,1.37-.91.91-1.37,2.02-1.37,3.31v11.49c0,1.29.46,2.4,1.38,3.32.92.92,2.02,1.38,3.3,1.38h4.29c1.29,0,2.4-.46,3.32-1.38.92-.92,1.38-2.03,1.38-3.32h1.66c0,1.75-.62,3.25-1.87,4.49-1.25,1.25-2.74,1.87-4.49,1.87h-4.29Z"/><path class="cls-10" d="m764.21,261.44v-23.82h10.73c1.15,0,2.18.26,3.09.79.91.53,1.59,1.2,2.06,2.03.47.83.81,1.74,1.02,2.75.22,1.01.21,2.01-.02,3.01-.23,1-.57,1.92-1.04,2.74-.46.83-1.15,1.5-2.04,2.02-.9.52-1.92.78-3.07.78h-9.05v9.7h-1.68Zm1.68-11.39h9.05c.84,0,1.59-.2,2.26-.6.66-.4,1.17-.91,1.53-1.54.35-.63.61-1.33.76-2.09s.16-1.52,0-2.28c-.16-.76-.41-1.46-.76-2.09-.35-.64-.87-1.15-1.54-1.54s-1.42-.59-2.25-.59h-9.05v10.75Z"/><path class="cls-10" d="m783.93,261.44v-23.82h10.61c1.61,0,2.96.48,4.06,1.45s1.78,2.14,2.03,3.54.24,2.79-.03,4.17c-.27,1.38-.99,2.56-2.14,3.52-1.16.96-2.57,1.45-4.24,1.45l6.79,9.7h-1.96l-6.74-9.7h-6.69v9.7h-1.68Zm1.68-11.39h8.25c2.2,0,3.76-.9,4.67-2.69.91-1.79.97-3.58.17-5.37-.79-1.79-2.18-2.68-4.16-2.68h-8.94v10.75Z"/></a></g><g id="_5a_cpr_msg_stop_cpr"><a xlink:href="cpr_msg_push_harder"><rect class="cls-19" x="548.01" y="227.55" width="345.34" height="44.89"/><path class="cls-10" d="m648.79,255.15h1.68c0,1.52.45,2.71,1.34,3.57.9.86,2.01,1.3,3.34,1.3h4.29c.3,0,.66-.04,1.1-.13.43-.09,1.01-.27,1.74-.53.72-.27,1.33-.75,1.82-1.45s.73-1.56.73-2.59c0-1.08-.29-1.99-.86-2.72-.58-.72-1.32-1.26-2.24-1.62-.92-.35-1.94-.66-3.06-.91s-2.24-.5-3.36-.76c-1.11-.26-2.13-.58-3.05-.96-.92-.38-1.67-.97-2.24-1.77-.58-.8-.86-1.77-.86-2.92,0-1.82.61-3.3,1.83-4.44s2.62-1.72,4.18-1.72h4.29c1.79,0,3.3.6,4.53,1.8,1.22,1.2,1.84,2.78,1.84,4.73h-1.66c0-1.52-.45-2.7-1.35-3.56-.9-.86-2.01-1.29-3.35-1.29h-4.29c-1.09,0-2.08.41-2.99,1.22-.91.81-1.36,1.87-1.36,3.16,0,.97.29,1.77.87,2.38.58.61,1.33,1.06,2.25,1.35s1.94.54,3.06.76c1.12.22,2.23.47,3.35.76,1.11.29,2.13.68,3.05,1.15.92.48,1.67,1.21,2.24,2.19.58.99.86,2.19.86,3.62,0,1.71-.68,3.12-2.03,4.24s-3.03,1.68-5.01,1.68h-4.29c-1.79,0-3.3-.6-4.53-1.8-1.22-1.2-1.83-2.78-1.83-4.73Z"/><path class="cls-10" d="m675.14,261.44v-22.14h-7.66v-1.68h17.01v1.68h-7.66v22.14h-1.69Z"/><path class="cls-10" d="m691.17,261.71c-1.75,0-3.25-.62-4.49-1.87-1.25-1.25-1.87-2.74-1.87-4.49l.03-11.49c0-1.77.62-3.27,1.84-4.51,1.23-1.23,2.72-1.85,4.48-1.85h6c1.73,0,3.22.61,4.48,1.84,1.26,1.22,1.88,2.7,1.88,4.43v11.63c0,1.75-.62,3.24-1.87,4.48-1.25,1.24-2.74,1.85-4.49,1.85h-6Zm0-1.66h6c1.3,0,2.4-.46,3.31-1.38.91-.92,1.37-2.03,1.37-3.32v-11.43c0-1.34-.46-2.47-1.39-3.38-.92-.91-2.02-1.37-3.3-1.37h-6c-1.27,0-2.37.46-3.28,1.39-.91.92-1.37,2.02-1.37,3.3l-.03,11.49c0,1.29.46,2.4,1.37,3.32.91.92,2.02,1.38,3.31,1.38Z"/><path class="cls-10" d="m706.57,261.44v-23.82h10.73c1.15,0,2.18.26,3.09.79.91.53,1.59,1.2,2.06,2.03.47.83.81,1.74,1.02,2.75.22,1.01.21,2.01-.02,3.01-.23,1-.57,1.92-1.04,2.74-.46.83-1.15,1.5-2.04,2.02-.9.52-1.92.78-3.07.78h-9.05v9.7h-1.68Zm1.68-11.39h9.05c.84,0,1.59-.2,2.26-.6.66-.4,1.17-.91,1.53-1.54.35-.63.61-1.33.76-2.09s.16-1.52,0-2.28c-.16-.76-.41-1.46-.76-2.09-.35-.64-.87-1.15-1.54-1.54s-1.42-.59-2.25-.59h-9.05v10.75Z"/><path class="cls-10" d="m742.16,261.71c-1.75,0-3.25-.62-4.49-1.87-1.25-1.25-1.87-2.74-1.87-4.49v-11.49c0-1.75.63-3.25,1.88-4.49,1.25-1.25,2.75-1.87,4.48-1.87h4.29c1.75,0,3.25.62,4.49,1.87,1.25,1.25,1.87,2.74,1.87,4.49h-1.66c0-1.3-.46-2.4-1.38-3.31s-2.03-1.37-3.32-1.37h-4.29c-1.29,0-2.4.46-3.31,1.37-.91.91-1.37,2.02-1.37,3.31v11.49c0,1.29.46,2.4,1.38,3.32.92.92,2.02,1.38,3.3,1.38h4.29c1.29,0,2.4-.46,3.32-1.38.92-.92,1.38-2.03,1.38-3.32h1.66c0,1.75-.62,3.25-1.87,4.49-1.25,1.25-2.74,1.87-4.49,1.87h-4.29Z"/><path class="cls-10" d="m755.85,261.44v-23.82h10.73c1.15,0,2.18.26,3.09.79.91.53,1.59,1.2,2.06,2.03.47.83.81,1.74,1.02,2.75.22,1.01.21,2.01-.02,3.01-.23,1-.57,1.92-1.04,2.74-.46.83-1.15,1.5-2.04,2.02-.9.52-1.92.78-3.07.78h-9.05v9.7h-1.68Zm1.68-11.39h9.05c.84,0,1.59-.2,2.26-.6.66-.4,1.17-.91,1.53-1.54.35-.63.61-1.33.76-2.09s.16-1.52,0-2.28c-.16-.76-.41-1.46-.76-2.09-.35-.64-.87-1.15-1.54-1.54s-1.42-.59-2.25-.59h-9.05v10.75Z"/><path class="cls-10" d="m775.56,261.44v-23.82h10.61c1.61,0,2.96.48,4.06,1.45s1.78,2.14,2.03,3.54.24,2.79-.03,4.17c-.27,1.38-.99,2.56-2.14,3.52-1.16.96-2.57,1.45-4.24,1.45l6.79,9.7h-1.96l-6.74-9.7h-6.69v9.7h-1.68Zm1.68-11.39h8.25c2.2,0,3.76-.9,4.67-2.69.91-1.79.97-3.58.17-5.37-.79-1.79-2.18-2.68-4.16-2.68h-8.94v10.75Z"/></a></g><g id="_5a_cpr_time"><a xlink:href="cpr_time_remaining"><text class="cls-2" transform="translate(35.38 89.72)"><tspan x="0" y="0">0</tspan></text></a></g><g id="_5a_cpr_depth_10"><a xlink:href="cpr_depth_level_10"><rect class="cls-20" x="65.53" y="448.88" width="32" height="4"/></a></g><g id="_5a_cpr_depth_9"><a xlink:href="cpr_depth_level_9"><rect class="cls-20" x="65.53" y="435.88" width="32" height="4"/></a></g><g id="_5a_cpr_depth_8"><a xlink:href="cpr_depth_level_8"><rect class="cls-20" x="65.53" y="422.88" width="32" height="4"/></a></g><g id="_5a_cpr_depth_7"><a xlink:href="cpr_depth_level_7"><rect class="cls-20" x="65.53" y="409.88" width="32" height="4"/></a></g><g id="_5a_cpr_depth_6"><a xlink:href="cpr_depth_level_6"><rect class="cls-19" x="65.53" y="396.88" width="32" height="4"/></a></g><g id="_5a_cpr_depth_5"><a xlink:href="cpr_depth_level_5"><rect class="cls-19" x="65.53" y="383.88" width="32" height="4"/></a></g><g id="_5a_cpr_depth_4"><a xlink:href="cpr_depth_level_4"><rect class="cls-19" x="65.53" y="370.88" width="32" height="4"/></a></g><g id="_5a_cpr_depth_3"><a xlink:href="cpr_depth_level_3"><rect class="cls-19" x="65.53" y="357.88" width="32" height="4"/></a></g><g id="_5a_cpr_depth_2"><a xlink:href="cpr_depth_level_2"><rect class="cls-19" x="65.53" y="344.88" width="32" height="4"/></a></g><g id="_5a_cpr_depth_1"><a xlink:href="cpr_depth_level_1"><rect class="cls-19" x="65.53" y="331.88" width="32" height="4"/></a></g><g id="_5a_cpr_depth_0"><a xlink:href="cpr_depth_level_0"><rect class="cls-19" x="65.53" y="318.88" width="32" height="4"/></a></g><g id="_3a_sleepy"><path class="cls-17" d="m690.99,438.52c-.09-4.03.28-7.71-2.02-11.11-2.03-2.84-6.5-3.24-10.05-3.8-21.41-3.28-42.82-6.62-64.31-9.45-21.04-3.08-42.1-6.19-63.17-8.54-7.9-.99-15.98-1.6-23.84-3.08-.32-.09-1.05-.36-1.12-.94v-.92c0-.47.38-.87.86-.86,1.77.03,3.69.21,5.54.4,9.89,1.07,19.92,2.06,29.88,3.44,40.69,5.13,81.36,12.11,122.03,17.26.05,0,.1,0,.16,0,7.2-.14,5.85-9.49,6.05-14.6.08-8.43-.65-14.03-9.43-15.15-14.21-2.18-28.64-3.91-42.82-6.47-14.27-2.09-28.78-3.85-43.05-6.09-19.43-2.77-38.95-5.13-58.39-7.67-9.53-.91-19.1-1.52-28.63-2.33-13.97-1.15-14.71,8.57-14.29,19.91.17,11.16,0,22.33-.26,33.49-.04,6.17-.54,13.79,4.36,18.25,6.01,5,15.69,4.18,23.3,4.74.02,0,.03,0,.05,0,15.75.14,31.37-.03,47.11,1.46,36.26,3.24,72.44,6.15,108.72,8.85,5.31.32,12.05.84,12.84-5.58.61-2.86.49-7.08.5-11.23Z"/><path class="cls-14" d="m507.62,461.95c-.88-.16-1.78-.28-2.67-.33-1.29-.07-2.59-.15-3.88-.24-1.61-.11-3.41-.23-5.28-.36-3.38-.25-6.76-.49-10.13-.7-.93-.06-1.79-.11-2.55-.16,0,0-.01,0-.02,0-1-.05-1.81-.27-1.75-.92.04-.44.6-.66,1.54-.64,6.11.19,14.71.62,18.8.6,1.14,0,2.47-.13,2.53-1.58.05-1.23-1.17-1.49-2.18-1.66-.88-.16-1.78-.28-2.67-.33-5.12-.27-17.73-1.25-22.86-1.51-1.71-.14-7.45.09-5.46-1,3.6-1.09,7.21-1.68,10.79-2.45,1.52-.32,3.45-.89,3.16-2.84-.25-1.65-2.16-1.31-3.43-1.31-8.99,0-17.89.72-26.5,3.6-1.97.66-3.13,1.92-3.56,4.03-1.02,5.1-1.16,10.23-1.25,15.4-.06,3.57,1.46,4.94,4.82,5.75,9.92,2.41,19.47,1.75,29.52,2.11.39.01.75.02,1.09.02,4.77.19,9.66.38,12.45.37,1.14,0,2.47-.13,2.53-1.58.05-1.23-1.17-1.49-2.18-1.66-.88-.16-1.78-.28-2.67-.33-1.89-.1-4.8-.29-7.97-.51-.9-.07-1.83-.14-2.86-.21-.92-.06-1.73-.49-1.79-1.02-.09-.87.55-1.5,1.54-1.45.03,0,.06,0,.09,0,.27.01.48.02.67.01,6.07.15,16.15.68,20.68.65,1.14,0,2.47-.13,2.53-1.58.05-1.23-1.17-1.49-2.18-1.66-.88-.16-1.78-.28-2.67-.33l-12.34-.73c-7.7-.32-8.54-.54-8.89-1.33-.45-1.75,4.53-1.48,5.22-1.51,6.13.18,15.2.64,19.43.62,1.14,0,2.47-.13,2.53-1.58.05-1.23-1.17-1.49-2.18-1.66Z"/><path class="cls-6" d="m489.36,398.53v-.14c-.05-5.08.04-12.6-.01-17.25.22-9.23-.9-14.49-11.52-14.23-21.35-.76-42.72-.8-64.06-.46-23.94-.19-47.89,1.25-71.43,5.86-9.74,1.95-18.98,5.53-27.51,10.62-.87.42-1.68.9-2.41,1.45-4.87,5.11-6.46,11.64-7.79,18.43-.62,3.16-1.15,6.34-1.65,9.52-.4,2.52-.85,5.03-1.3,7.54-.37,2.06-.91,4.08-.95,6.18-.03.25-.09.48-.17.68-.63,9.28,3.85,13.88,11.14,18.99,5.86,3.88,12.26,6.6,18.47,9.62,3.66,1.81,8.32,2.74,12.42,4.08,22.87,7.21,46.76,10.38,70.46,13.38,9.35.76,18.64.29,27.9,2.14,4.34.74,5.06-2.49,5.31-6.12.5-5.65.92-10.17,1.45-15.78.45-3.18.14-6.17-3.49-6.91-9.48-2.64-18.66-6.23-28.34-7.96-22.5-4.61-44.17-12.66-66.19-19.06-3.68-1.12-7.35-2.32-11.01-3.42-1.5-.87-14.28-2.49-11.62-5.19.71-.33,1.4-.22,2.19-.11,2.62.46,6.82,1.25,9.22,1.69.14.03.27.06.41.09,30.29,8.16,60.1,18.79,90.94,24.77.13.03.26.06.39.09,4.32,1.21,8.69,2.61,13.07,3.84,2.26.64,4.58,1.07,6.93,1.23,7.94.56,17.04.55,24.54,1.02,11.04.55,12.72-.32,14.14-11.79,1.14-10.86.28-21.92.47-32.8Z"/><path class="cls-14" d="m307.05,384.04c-2.82,0-5.91.05-8.65.18-2.26.27-3.73-.04-3.2-2.84.52-4.5,1.27-9.19.81-13.74-.99-7.12-10.17-5.81-15.46-5.33-3.16.39-2.81,4.23-3.32,6.67-.38,1.91-1.85,2.1-2.28.19-.35-3.24-.36-8.4-4.44-8.65-2.13-.22-4.29,1.08-6.39.46h0c-4.93-1.95-6.34-9.22-12.53-4.55-4.34,2.59-8.28,6.69-13.26,7.82-1.81.37-3.73.24-5.58.22-5.11-.13-9.66,1.52-14.41,4.07-1.77.68-3.53,2.87-5.33,2.61h0c-1.12-.41-2.39-2.26-3.93-1.36-14.2,11.83-13.03,38.51-2.15,52.32,7.36,8.9,15.77,13.04,30.56,13.76,6.59.47,12.27-.91,18.43-4.77,3.11-2.03,6.39-4.38,8.74-7.01,3.03-2.93,6.42-7.8,11.04-6.24l20.53,5.07c.94.23,1.89-.37,2.07-1.33s.39-2,.57-3c.5-2.83,1.01-5.65,1.45-8.49.61-3.86,1.27-7.71,2.13-11.53.78-3.46,1.69-6.89,3.33-10.06.57-1.11,1.23-2.15,1.95-3.13.41-.56.02-1.36-.68-1.36Z"/></g><g id="_3a_stand_back"><path class="cls-14" d="m385.55,100.55c5.69-4.34,10.19-10.57,13.02-17.18,4.04-9.31,3.59-18.64,3.57-28.77-.03-2.66-.1-5.42-.42-8.02l-.02-.19c-3.61-28.85-51.77-27.82-53.89,1.05-.6,10.98-.99,22.65,2.79,33.16,4.57,13.89,20.1,31.51,34.95,19.93Z"/><path class="cls-14" d="m518.49,95.45c1.77-3.32,3.9-6.3,5.88-9.38.84-1.31,1.8-3.07.22-4.24-1.34-.99-2.45.61-3.34,1.51-6.34,6.38-12.11,13.19-16.15,21.31-.93,1.86-.85,3.57.35,5.37,2.89,4.32,6.43,8.04,10.03,11.76,2.48,2.56,4.53,2.45,7.48.64,8.71-5.33,14.98-12.56,22.33-19.42.29-.27.54-.52.78-.76,3.5-3.24,7.09-6.57,9.04-8.56.8-.81,1.65-1.84.66-2.9-.84-.9-1.88-.22-2.71.37-.73.52-1.46,1.06-2.12,1.66-1.4,1.27-3.59,3.19-5.99,5.29-.68.59-1.39,1.2-2.17,1.88-.69.61-1.57.88-1.99.55-.68-.55-.67-1.45.06-2.12.02-.02.04-.04.07-.06.2-.18.35-.33.49-.47,4.39-4.2,11.88-10.96,15.06-14.19.8-.81,1.65-1.84.66-2.9-.84-.9-1.88-.22-2.71.37-.73.52-1.46,1.06-2.12,1.66l-9.23,8.22c-5.66,5.23-6.41,5.67-7.21,5.36-1.56-.91,2.14-4.26,2.61-4.77,4.45-4.21,11.18-10.32,14.15-13.33.8-.81,1.65-1.84.66-2.9-.84-.9-1.88-.22-2.71.37-.73.52-1.46,1.06-2.12,1.66-.96.87-1.94,1.73-2.91,2.59-1.21,1.06-2.57,2.26-3.98,3.49-2.56,2.22-5.12,4.44-7.65,6.69-.7.62-1.35,1.19-1.91,1.69,0,0-.01,0-.02.01-.74.67-1.47,1.09-1.88.59-.28-.34-.05-.9.63-1.54,4.45-4.19,10.82-9.98,13.69-12.9.8-.81,1.65-1.84.66-2.9-.84-.9-1.88-.22-2.71.37-.73.52-1.46,1.06-2.12,1.66-3.8,3.44-13.4,11.69-17.2,15.13-1.31,1.12-5.19,5.34-4.56,3.16Z"/><path class="cls-16" d="m508.34,120.57c-3.09-2.95-6.25-6.22-9.82-6.97-4.16-1.02-8.41,1.75-11.78,4.22-7.81,5.7-14.98,11.03-22.52,16.72h0c-3.26,2.43-7.89,1.57-10.07-1.87-4.39-6.89-8.87-13.73-13.44-20.51-5.94-8.59-12.1-16.96-21.3-20.11h0c-.35-.18-.69-.36-1.04-.53-7.59-3.6-14.11-4.8-19.24,3.16-7.56,10.95-20.73,24.48-34.28,14.15-5.08-3.52-9.34-7.9-12.65-12.68-5.86-9.53-12.73-8.23-21.63-3.46-1.06.56-2.12,1.14-3.19,1.71h0c-8.38,3.51-14.18,11.42-19.78,19.53-4.57,6.78-9.05,13.62-13.44,20.51-2.19,3.43-6.81,4.3-10.07,1.87h0c-7.53-5.69-14.7-11.01-22.52-16.72-3.38-2.47-7.62-5.24-11.78-4.22-3.56.75-6.73,4.03-9.82,6.97-3.93,3.59-7.44,8.36-3.19,13.42h0c17.94,17.73,44.4,54.66,72.31,37.14,11.54-7.73,17.88-21.22,25.15-32.78.03-.04.06-.09.09-.14.63-.98,2.12-.8,2.48.31.06.18.11.34.14.48,6.12,20.06,1.21,40.39,6.66,60.7,1.45,5.06,2.78,12.27,7.74,14.39h.01c3.18.98,6.45.54,9.87.51,2.62-.02,26.93-.05,29.56-.07,5.09-.07,7.86.17,10.13-1.9.89-.81,1.63-1.79,2.28-2.83,1.01-1.6,1.77-3.34,2.3-5.16,6.23-21.2,2.17-42.64,8.34-63.98,0,0,0-.02,0-.03.33-1.16,1.9-1.35,2.52-.32,6.38,10.62,12.55,22.13,22.86,29.04,27.91,17.52,54.37-19.41,72.31-37.13h0c4.25-5.06.73-9.83-3.19-13.42Z"/><path class="cls-14" d="m229.81,97.21c-1.77-3.32-3.9-6.3-5.88-9.38-.84-1.31-1.8-3.07-.22-4.24,1.34-.99,2.45.61,3.34,1.51,6.34,6.38,12.11,13.19,16.15,21.31.93,1.86.85,3.57-.35,5.37-2.89,4.32-6.43,8.04-10.03,11.76-2.48,2.56-4.53,2.45-7.48.64-8.71-5.33-14.98-12.56-22.33-19.42-.29-.27-.54-.52-.78-.76-3.5-3.24-7.09-6.57-9.04-8.56-.8-.81-1.65-1.84-.66-2.9.84-.9,1.88-.22,2.71.37.73.52,1.46,1.06,2.12,1.66,1.4,1.27,3.59,3.19,5.99,5.29.68.59,1.39,1.2,2.17,1.88.69.61,1.57.88,1.99.55.68-.55.67-1.45-.06-2.12-.02-.02-.04-.04-.07-.06-.2-.18-.35-.33-.49-.47-4.39-4.2-11.88-10.96-15.06-14.19-.8-.81-1.65-1.84-.66-2.9.84-.9,1.88-.22,2.71.37.73.52,1.46,1.06,2.12,1.66l9.23,8.22c5.66,5.23,6.41,5.67,7.21,5.36,1.56-.91-2.14-4.26-2.61-4.77-4.45-4.21-11.18-10.32-14.15-13.33-.8-.81-1.65-1.84-.66-2.9.84-.9,1.88-.22,2.71.37.73.52,1.46,1.06,2.12,1.66.96.87,1.94,1.73,2.91,2.59,1.21,1.06,2.57,2.26,3.98,3.49,2.56,2.22,5.12,4.44,7.65,6.69.7.62,1.35,1.19,1.91,1.69,0,0,.01,0,.02.01.74.67,1.47,1.09,1.88.59.28-.34.05-.9-.63-1.54-4.45-4.19-10.82-9.98-13.69-12.9-.8-.81-1.65-1.84-.66-2.9.84-.9,1.88-.22,2.71.37.73.52,1.46,1.06,2.12,1.66,3.8,3.44,13.4,11.69,17.2,15.13,1.31,1.12,5.19,5.34,4.56,3.16Z"/><circle class="cls-19" cx="572.56" cy="67.45" r="6.5"/><circle class="cls-19" cx="175.29" cy="68.45" r="6.5"/><path class="cls-17" d="m406.56,324.3c1.04,3.26,1.96,10.76,5.41,11.52,3.87-.3,6.01-12.08,7.54-15.51,3.38-9.46,6.73-18.93,10.09-28.39,2.33-6.21,4.86-12.36,7.48-18.46,2.07-4.72,4.57-9.57,4.72-14.8.2-4.92-1.55-9.72-3.41-14.21-3.9-9.47-11-18.51-21.96-18.65h-.16c-6.49-.2-13.45,2.36-17.51,7.4-7.91,10.02-2.93,29.33-1.51,41.25,2.39,16.72,5.41,33.36,9.31,49.85Z"/><path class="cls-17" d="m322.36,291.92c3.36,9.46,6.71,18.93,10.09,28.39,1.53,3.43,3.67,15.22,7.54,15.51,3.45-.75,4.37-8.26,5.41-11.52,3.9-16.49,6.92-33.13,9.31-49.85,1.42-11.92,6.4-31.23-1.51-41.25-4.05-5.04-11.01-7.61-17.51-7.41h-.16c-10.96.14-18.06,9.19-21.96,18.65-1.86,4.5-3.61,9.29-3.41,14.21.14,5.22,2.65,10.07,4.72,14.8,2.61,6.1,5.15,12.24,7.48,18.46Z"/><path class="cls-17" d="m333.25,287.18c-3.36-9.46-6.71-18.93-10.09-28.39-1.53-3.43-3.67-15.22-7.54-15.51-3.45.75-4.37,8.26-5.41,11.52-3.9,16.49-6.92,33.13-9.31,49.85-1.42,11.92-6.4,31.23,1.51,41.25,4.05,5.04,11.01,7.61,17.51,7.41h.16c10.96-.14,18.06-9.19,21.96-18.65,1.86-4.5,3.61-9.29,3.41-14.21-.14-5.22-2.65-10.07-4.72-14.8-2.61-6.1-5.15-12.24-7.48-18.46Z"/><path class="cls-17" d="m441.75,254.79c-1.04-3.26-1.96-10.76-5.41-11.52-3.87.3-6.01,12.08-7.54,15.51-3.38,9.46-6.73,18.93-10.09,28.39-2.33,6.21-4.86,12.36-7.48,18.46-2.07,4.72-4.57,9.57-4.72,14.8-.2,4.92,1.55,9.72,3.41,14.21,3.9,9.47,11,18.51,21.96,18.65h.16c6.49.2,13.45-2.36,17.51-7.4,7.91-10.02,2.93-29.33,1.51-41.25-2.39-16.72-5.41-33.36-9.31-49.85Z"/><path class="cls-17" d="m427.73,233.11c-2.69-.82-3.69-3.13-3.46-5.31-2.73-1.19-5.66-1.98-8.54-2.67-9.95-2.4-21.45-1.96-27.99,6.83l-.1.13c-3.97,5.14-5.98,12.28-4.28,18.52,3.47,12.29,22.02,19.59,32.51,25.44,5.03,2.65,10.1,5.24,15.21,7.76,1.88-4.01,3.81-8,5.9-11.89.24-8.96-.51-17.91-.79-26.87-1.59-5.27-3.97-10.56-8.45-11.93Z"/><path class="cls-17" d="m366.21,233.13l-.09-.13c-6.06-9.13-17.51-10.18-27.58-8.32-3.4.62-6.9,1.39-10.08,2.79-.61,12.71-8.89,22.69-11.74,34.78-1.7,7.18-1.62,14.61-1.02,22.02,6.71-2.8,13.37-5.71,19.97-8.75,10.79-5.28,29.7-11.57,33.83-23.66,2.04-6.14.41-13.38-3.28-18.72Z"/></g><g id="_3a_stand_msg_stand_back"><rect class="cls-19" x="548.01" y="227.55" width="345.34" height="44.89"/><path class="cls-10" d="m627.73,255.15h1.68c0,1.52.45,2.71,1.34,3.57.9.86,2.01,1.3,3.34,1.3h4.29c.3,0,.66-.04,1.1-.13.43-.09,1.01-.27,1.74-.53.72-.27,1.33-.75,1.82-1.45s.73-1.56.73-2.59c0-1.08-.29-1.99-.86-2.72-.58-.72-1.32-1.26-2.24-1.62-.92-.35-1.94-.66-3.06-.91s-2.24-.5-3.36-.76c-1.11-.26-2.13-.58-3.05-.96-.92-.38-1.67-.97-2.24-1.77-.58-.8-.86-1.77-.86-2.92,0-1.82.61-3.3,1.83-4.44s2.62-1.72,4.18-1.72h4.29c1.79,0,3.3.6,4.53,1.8,1.22,1.2,1.84,2.78,1.84,4.73h-1.66c0-1.52-.45-2.7-1.35-3.56-.9-.86-2.01-1.29-3.35-1.29h-4.29c-1.09,0-2.08.41-2.99,1.22-.91.81-1.36,1.87-1.36,3.16,0,.97.29,1.77.87,2.38.58.61,1.33,1.06,2.25,1.35s1.94.54,3.06.76c1.12.22,2.23.47,3.35.76,1.11.29,2.13.68,3.05,1.15.92.48,1.67,1.21,2.24,2.19.58.99.86,2.19.86,3.62,0,1.71-.68,3.12-2.03,4.24s-3.03,1.68-5.01,1.68h-4.29c-1.79,0-3.3-.6-4.53-1.8-1.22-1.2-1.83-2.78-1.83-4.73Z"/><path class="cls-10" d="m654.09,261.44v-22.14h-7.66v-1.68h17.01v1.68h-7.66v22.14h-1.69Z"/><path class="cls-10" d="m662.84,261.44h-1.81l9.57-23.82h1.05l9.53,23.82h-1.81l-2.34-5.81h-11.88l-2.31,5.81Zm2.96-7.49h10.61l-5.3-13.39-5.32,13.39Z"/><path class="cls-10" d="m683.89,261.44v-23.82h1.29l15.35,20.7.07-20.7h1.66v23.82h-1.36l-15.33-20.58v20.58h-1.68Z"/><path class="cls-10" d="m705.81,261.44v-23.82h10.65c1.75,0,3.24.62,4.48,1.86,1.24,1.24,1.86,2.72,1.89,4.43v11.23c-.02,1.73-.65,3.21-1.89,4.44-1.23,1.24-2.73,1.85-4.48,1.85h-10.65Zm1.68-1.66h8.97c1.27,0,2.38-.46,3.3-1.38.93-.92,1.4-2.03,1.4-3.32v-11.1c0-1.3-.46-2.4-1.4-3.31-.93-.91-2.03-1.37-3.3-1.37h-8.97v20.48Z"/><path class="cls-10" d="m735.73,261.44v-23.82h9.3c1.95,0,3.53.7,4.74,2.09,1.21,1.4,1.74,3.02,1.59,4.87s-1,3.37-2.57,4.55c1.23.5,2.19,1.26,2.89,2.28.7,1.02,1.05,2.09,1.05,3.21s-.21,2.2-.62,3.23c-.42,1.03-1.13,1.88-2.16,2.57-1.02.68-2.21,1.02-3.55,1.02h-10.68Zm1.68-12.72h7.62c1.15,0,2.12-.32,2.92-.97s1.28-1.43,1.48-2.35c.19-.92.19-1.84,0-2.77-.19-.93-.69-1.72-1.48-2.36s-1.76-.96-2.92-.96h-7.62v9.42Zm0,11.06h9c1.15,0,2.13-.32,2.94-.97s1.31-1.44,1.5-2.37c.19-.93.2-1.85.02-2.77-.18-.92-.67-1.7-1.48-2.35-.8-.65-1.8-.97-2.98-.97h-9v9.43Z"/><path class="cls-10" d="m755.89,261.44h-1.81l9.57-23.82h1.05l9.53,23.82h-1.81l-2.34-5.81h-11.88l-2.31,5.81Zm2.96-7.49h10.61l-5.3-13.39-5.32,13.39Z"/><path class="cls-10" d="m781.6,261.71c-1.75,0-3.25-.62-4.49-1.87-1.25-1.25-1.87-2.74-1.87-4.49v-11.49c0-1.75.63-3.25,1.88-4.49,1.25-1.25,2.75-1.87,4.48-1.87h4.29c1.75,0,3.25.62,4.49,1.87,1.25,1.25,1.87,2.74,1.87,4.49h-1.66c0-1.3-.46-2.4-1.38-3.31s-2.03-1.37-3.32-1.37h-4.29c-1.29,0-2.4.46-3.31,1.37-.91.91-1.37,2.02-1.37,3.31v11.49c0,1.29.46,2.4,1.38,3.32.92.92,2.02,1.38,3.3,1.38h4.29c1.29,0,2.4-.46,3.32-1.38.92-.92,1.38-2.03,1.38-3.32h1.66c0,1.75-.62,3.25-1.87,4.49-1.25,1.25-2.74,1.87-4.49,1.87h-4.29Z"/><path class="cls-10" d="m811.48,261.44l-10.43-12.66-4.09,3.82v8.84h-1.68v-23.82h1.68v12.79l14.08-12.79h2.28l-11.03,10.05,11.33,13.77h-2.14Z"/></g><g id="_3a_stand_msg_dont_touch"><rect class="cls-19" x="548.01" y="227.55" width="345.34" height="44.89"/><path class="cls-10" d="m562.7,261.44v-23.82h10.65c1.75,0,3.24.62,4.48,1.86,1.23,1.24,1.86,2.72,1.88,4.43v11.23c-.02,1.73-.65,3.21-1.88,4.44s-2.73,1.85-4.48,1.85h-10.65Zm1.68-1.66h8.97c1.27,0,2.38-.46,3.31-1.38.93-.92,1.39-2.03,1.39-3.32v-11.1c0-1.3-.46-2.4-1.39-3.31-.93-.91-2.03-1.37-3.31-1.37h-8.97v20.48Z"/><path class="cls-10" d="m588.43,261.71c-1.75,0-3.25-.62-4.49-1.87-1.25-1.25-1.87-2.74-1.87-4.49l.03-11.49c0-1.77.62-3.27,1.84-4.51,1.23-1.23,2.72-1.85,4.48-1.85h6c1.73,0,3.22.61,4.48,1.84,1.26,1.22,1.88,2.7,1.88,4.43v11.63c0,1.75-.62,3.24-1.87,4.48-1.25,1.24-2.74,1.85-4.49,1.85h-6Zm0-1.66h6c1.3,0,2.4-.46,3.31-1.38.91-.92,1.37-2.03,1.37-3.32v-11.43c0-1.34-.46-2.47-1.39-3.38s-2.02-1.37-3.3-1.37h-6c-1.27,0-2.37.46-3.28,1.39-.91.92-1.37,2.02-1.37,3.3l-.03,11.49c0,1.29.46,2.4,1.37,3.32.91.92,2.02,1.38,3.31,1.38Z"/><path class="cls-10" d="m603.83,261.44v-23.82h1.29l15.35,20.7.07-20.7h1.66v23.82h-1.36l-15.33-20.58v20.58h-1.68Z"/><path class="cls-10" d="m632.23,261.44v-22.14h-7.66v-1.68h17.01v1.68h-7.66v22.14h-1.69Z"/><path class="cls-10" d="m660.78,261.44v-22.14h-7.66v-1.68h17.01v1.68h-7.66v22.14h-1.69Z"/><path class="cls-10" d="m676.8,261.71c-1.75,0-3.25-.62-4.49-1.87-1.25-1.25-1.87-2.74-1.87-4.49l.03-11.49c0-1.77.62-3.27,1.84-4.51,1.23-1.23,2.72-1.85,4.48-1.85h6c1.73,0,3.22.61,4.48,1.84,1.26,1.22,1.88,2.7,1.88,4.43v11.63c0,1.75-.62,3.24-1.87,4.48-1.25,1.24-2.74,1.85-4.49,1.85h-6Zm0-1.66h6c1.3,0,2.4-.46,3.31-1.38.91-.92,1.37-2.03,1.37-3.32v-11.43c0-1.34-.46-2.47-1.39-3.38-.92-.91-2.02-1.37-3.3-1.37h-6c-1.27,0-2.37.46-3.28,1.39-.91.92-1.37,2.02-1.37,3.3l-.03,11.49c0,1.29.46,2.4,1.37,3.32.91.92,2.02,1.38,3.31,1.38Z"/><path class="cls-10" d="m698.56,261.71c-1.75,0-3.25-.62-4.49-1.87-1.25-1.25-1.87-2.74-1.87-4.49l.05-17.72h1.66l-.03,17.72c0,1.29.46,2.4,1.38,3.32.92.92,2.02,1.38,3.3,1.38h4.3c1.52,0,2.68-.44,3.48-1.33.8-.89,1.2-2.01,1.2-3.37v-17.72h1.66v17.76c0,1.82-.55,3.32-1.66,4.53-1.11,1.2-2.67,1.8-4.68,1.8h-4.3Z"/><path class="cls-10" d="m718.28,261.71c-1.75,0-3.25-.62-4.49-1.87-1.25-1.25-1.87-2.74-1.87-4.49v-11.49c0-1.75.63-3.25,1.88-4.49,1.25-1.25,2.75-1.87,4.48-1.87h4.29c1.75,0,3.25.62,4.49,1.87,1.25,1.25,1.87,2.74,1.87,4.49h-1.66c0-1.3-.46-2.4-1.38-3.31s-2.03-1.37-3.32-1.37h-4.29c-1.29,0-2.4.46-3.31,1.37-.91.91-1.37,2.02-1.37,3.31v11.49c0,1.29.46,2.4,1.38,3.32.92.92,2.02,1.38,3.3,1.38h4.29c1.29,0,2.4-.46,3.32-1.38.92-.92,1.38-2.03,1.38-3.32h1.66c0,1.75-.62,3.25-1.87,4.49-1.25,1.25-2.74,1.87-4.49,1.87h-4.29Z"/><path class="cls-10" d="m731.96,261.44v-23.82h1.68v11.06h13.67v-11.06h1.66v23.82h-1.66v-11.06h-13.67v11.06h-1.68Z"/><path class="cls-10" d="m762.56,261.44v-23.82h10.73c1.15,0,2.18.26,3.09.79.91.53,1.59,1.2,2.06,2.03.47.83.81,1.74,1.02,2.75.22,1.01.21,2.01-.02,3.01-.23,1-.57,1.92-1.04,2.74-.46.83-1.15,1.5-2.04,2.02-.9.52-1.92.78-3.07.78h-9.05v9.7h-1.68Zm1.68-11.39h9.05c.84,0,1.59-.2,2.26-.6.66-.4,1.17-.91,1.53-1.54.35-.63.61-1.33.76-2.09s.16-1.52,0-2.28c-.16-.76-.41-1.46-.76-2.09-.35-.64-.87-1.15-1.54-1.54s-1.42-.59-2.25-.59h-9.05v10.75Z"/><path class="cls-10" d="m780.35,261.44h-1.81l9.57-23.82h1.05l9.53,23.82h-1.81l-2.34-5.81h-11.88l-2.31,5.81Zm2.96-7.49h10.61l-5.3-13.39-5.32,13.39Z"/><path class="cls-10" d="m803.95,261.44v-22.14h-7.66v-1.68h17.01v1.68h-7.66v22.14h-1.69Z"/><path class="cls-10" d="m816.52,261.44v-23.82h1.63v23.82h-1.63Z"/><path class="cls-10" d="m822.39,261.44v-23.82h16.16v1.68h-14.48v9.38h10.85v1.69h-10.85v9.4h14.48v1.66h-16.16Z"/><path class="cls-10" d="m841.93,261.44v-23.82h1.29l15.35,20.7.07-20.7h1.66v23.82h-1.36l-15.33-20.58v20.58h-1.68Z"/><path class="cls-10" d="m870.34,261.44v-22.14h-7.66v-1.68h17.01v1.68h-7.66v22.14h-1.69Z"/></g><g id="_3a_stand_msg_analyzing"><rect class="cls-19" x="548.01" y="227.55" width="345.34" height="44.89"/><path class="cls-10" d="m641.14,261.44h-1.81l9.57-23.82h1.05l9.53,23.82h-1.81l-2.34-5.81h-11.88l-2.31,5.81Zm2.96-7.49h10.61l-5.3-13.39-5.32,13.39Z"/><path class="cls-10" d="m662.18,261.44v-23.82h1.29l15.35,20.7.07-20.7h1.66v23.82h-1.36l-15.33-20.58v20.58h-1.68Z"/><path class="cls-10" d="m684.72,261.44h-1.81l9.57-23.82h1.05l9.53,23.82h-1.81l-2.34-5.81h-11.88l-2.31,5.81Zm2.96-7.49h10.61l-5.3-13.39-5.32,13.39Z"/><path class="cls-10" d="m705.76,261.44v-23.82h1.68v22.16h13.15v1.66h-14.83Z"/><path class="cls-10" d="m724.63,261.44l-.03-11.66-8.44-12.16h2.08l7.23,10.48,7.21-10.48h2.08l-8.44,12.16.03,11.66h-1.71Z"/><path class="cls-10" d="m736.77,261.44v-1.36l14.4-20.78h-14.4v-1.68h16.71v1.36l-14.38,20.79h14.38v1.66h-16.71Z"/><path class="cls-10" d="m757.4,261.44v-23.82h1.63v23.82h-1.63Z"/><path class="cls-10" d="m763.26,261.44v-23.82h1.29l15.35,20.7.07-20.7h1.66v23.82h-1.36l-15.33-20.58v20.58h-1.68Z"/><path class="cls-10" d="m790.7,261.71c-1.75,0-3.25-.62-4.49-1.87-1.25-1.25-1.87-2.74-1.87-4.49v-11.49c0-1.75.63-3.25,1.88-4.49,1.25-1.25,2.75-1.87,4.48-1.87h4.29c1.79,0,3.3.6,4.53,1.8,1.22,1.2,1.84,2.78,1.84,4.73h-1.66c0-1.52-.45-2.7-1.35-3.56-.9-.86-2.02-1.29-3.35-1.29h-4.29c-1.29,0-2.4.46-3.31,1.37-.91.91-1.37,2.02-1.37,3.31v11.49c0,1.29.46,2.4,1.38,3.32.92.92,2.02,1.38,3.3,1.38h4.29c1.29,0,2.4-.46,3.32-1.38.92-.92,1.38-2.03,1.38-3.32v-3.32h-6.2v-1.71h7.86v5.03c0,1.75-.62,3.25-1.87,4.49-1.25,1.25-2.74,1.87-4.49,1.87h-4.29Z"/></g><g id="_0_shocks_number"><a xlink:href="cpr_shocks_number"><text class="cls-1" transform="translate(871.74 120.85)"><tspan x="0" y="0">0</tspan></text></a></g><g id="_0_shocks_label"><path class="cls-11" d="m862.05,51.44h1.4c0,1.26.37,2.26,1.12,2.98.75.72,1.67,1.08,2.78,1.08h3.57c.25,0,.55-.04.91-.11.36-.07.84-.22,1.45-.44.6-.22,1.11-.62,1.52-1.2.41-.58.61-1.3.61-2.16,0-.9-.24-1.66-.72-2.26-.48-.6-1.1-1.05-1.87-1.35-.77-.3-1.62-.55-2.55-.75s-1.87-.42-2.8-.64c-.93-.22-1.77-.48-2.54-.8s-1.39-.81-1.87-1.47c-.48-.66-.72-1.48-.72-2.44,0-1.51.51-2.75,1.53-3.7s2.18-1.43,3.48-1.43h3.57c1.5,0,2.75.5,3.77,1.5,1.02,1,1.53,2.31,1.53,3.94h-1.38c0-1.26-.37-2.25-1.12-2.97-.75-.71-1.68-1.07-2.8-1.07h-3.57c-.9,0-1.73.34-2.49,1.02s-1.13,1.56-1.13,2.64c0,.81.24,1.47.73,1.98.48.51,1.11.88,1.88,1.12.77.24,1.62.45,2.55.63.93.18,1.86.39,2.79.64.93.24,1.77.57,2.54.96.77.4,1.39,1.01,1.87,1.83.48.82.72,1.83.72,3.02,0,1.42-.56,2.6-1.7,3.53-1.13.93-2.52,1.4-4.17,1.4h-3.57c-1.49,0-2.75-.5-3.77-1.5-1.02-1-1.53-2.31-1.53-3.94Z"/><path class="cls-11" d="m879.33,56.68v-19.85h1.4v9.22h11.39v-9.22h1.38v19.85h-1.38v-9.22h-11.39v9.22h-1.4Z"/><path class="cls-11" d="m901.06,56.9c-1.46,0-2.71-.52-3.74-1.56s-1.56-2.29-1.56-3.74l.03-9.58c0-1.48.51-2.73,1.54-3.76,1.02-1.03,2.27-1.54,3.74-1.54h5c1.44,0,2.68.51,3.73,1.53,1.05,1.02,1.57,2.25,1.57,3.69v9.69c0,1.46-.52,2.7-1.56,3.73s-2.29,1.54-3.74,1.54h-5Zm0-1.38h5c1.08,0,2-.38,2.76-1.15.76-.77,1.14-1.69,1.14-2.77v-9.52c0-1.12-.39-2.06-1.16-2.82s-1.69-1.14-2.75-1.14h-5c-1.06,0-1.97.39-2.73,1.16-.76.77-1.14,1.69-1.14,2.75l-.03,9.58c0,1.08.38,2,1.14,2.77.76.77,1.68,1.15,2.76,1.15Z"/><path class="cls-11" d="m918.62,56.9c-1.46,0-2.71-.52-3.74-1.56s-1.56-2.29-1.56-3.74v-9.58c0-1.46.52-2.71,1.56-3.74s2.29-1.56,3.74-1.56h3.57c1.46,0,2.71.52,3.74,1.56s1.56,2.29,1.56,3.74h-1.38c0-1.08-.38-2-1.15-2.76s-1.69-1.14-2.77-1.14h-3.57c-1.08,0-2,.38-2.76,1.14-.76.76-1.14,1.68-1.14,2.76v9.58c0,1.08.38,2,1.15,2.77.77.77,1.68,1.15,2.75,1.15h3.57c1.08,0,2-.38,2.77-1.15.77-.77,1.15-1.69,1.15-2.77h1.38c0,1.46-.52,2.71-1.56,3.74s-2.29,1.56-3.74,1.56h-3.57Z"/><path class="cls-11" d="m943.52,56.68l-8.69-10.55-3.41,3.18v7.36h-1.4v-19.85h1.4v10.66l11.74-10.66h1.9l-9.19,8.37,9.44,11.47h-1.79Z"/><path class="cls-11" d="m947,51.44h1.4c0,1.26.37,2.26,1.12,2.98.75.72,1.67,1.08,2.78,1.08h3.57c.25,0,.55-.04.91-.11.36-.07.84-.22,1.45-.44.6-.22,1.11-.62,1.52-1.2.41-.58.61-1.3.61-2.16,0-.9-.24-1.66-.72-2.26-.48-.6-1.1-1.05-1.87-1.35-.77-.3-1.62-.55-2.55-.75s-1.87-.42-2.8-.64c-.93-.22-1.77-.48-2.54-.8s-1.39-.81-1.87-1.47c-.48-.66-.72-1.48-.72-2.44,0-1.51.51-2.75,1.53-3.7s2.18-1.43,3.48-1.43h3.57c1.5,0,2.75.5,3.77,1.5,1.02,1,1.53,2.31,1.53,3.94h-1.38c0-1.26-.37-2.25-1.12-2.97-.75-.71-1.68-1.07-2.8-1.07h-3.57c-.9,0-1.73.34-2.49,1.02s-1.13,1.56-1.13,2.64c0,.81.24,1.47.73,1.98.48.51,1.11.88,1.88,1.12.77.24,1.62.45,2.55.63.93.18,1.86.39,2.79.64.93.24,1.77.57,2.54.96.77.4,1.39,1.01,1.87,1.83.48.82.72,1.83.72,3.02,0,1.42-.56,2.6-1.7,3.53-1.13.93-2.52,1.4-4.17,1.4h-3.57c-1.49,0-2.75-.5-3.77-1.5-1.02-1-1.53-2.31-1.53-3.94Z"/></g><g id="_0_time"><a xlink:href="time"><text class="cls-3" transform="translate(873.45 462.16)"><tspan x="0" y="0">0</tspan></text></a></g><g id="_2_chest"><path class="cls-6" d="m659.92,152.97c-1.76-26.23-4.54-52.21-31.08-64.96l-.33-.17c-7.72-3.67-17.34-6.63-27.53-9.1-14.58-3.17-29.19-4.37-43.93-3.72-4.91.21-9.77,1.08-14.49,2.46-14.37,4.2-28.6,8.03-42.56,8.59-13.96-.56-28.19-4.39-42.56-8.59-4.72-1.38-9.58-2.25-14.49-2.46-14.75-.65-29.35.56-43.93,3.72-10.19,2.47-19.81,5.43-27.53,9.1l-.33.17c-26.54,12.75-29.32,38.73-31.08,64.96-2.32,41.73-3.16,83.5-2.6,125.33.33,51.64-.72,100.87,5.47,151.69,2.07,12.19,13.14,12.95,23.02,11.69,7.95-.84,16.45-1.4,21.84-5.57,6.5-4.7,7.68-14.11,8.24-21.92,1.31-18.05,2.4-34.73,3.4-52.37,1.57-25.17,1.99-50.57,3.68-75.7,3.36-38.75,3.47-77.71,4.9-116.56.32-5.18,1.22-19.18,5.44-18.86,2.43,1.95,2.37,7.46,2.84,10.73,1.87,20.06,3.14,39.86,3.83,59.58.19,5.97.31,11.93.4,17.88,2.76,51.47,4.63,103.88,8.38,154.41,2.54,7.88,9.38,9.69,18.4,11.12h105.43c9.03-1.43,15.86-3.24,18.4-11.12,3.74-50.53,5.61-102.93,8.38-154.41.08-5.95.2-11.91.4-17.88.68-19.72,1.95-39.51,3.83-59.58.47-3.27.41-8.78,2.84-10.73,4.22-.32,5.12,13.68,5.44,18.86,1.43,38.85,1.55,77.81,4.9,116.56,1.68,25.13,2.11,50.53,3.68,75.7,1,17.64,2.08,34.32,3.4,52.37.56,7.81,1.74,17.22,8.24,21.92,5.38,4.17,13.89,4.73,21.84,5.57,9.88,1.26,20.95.5,23.02-11.69,6.19-50.83,5.14-100.06,5.47-151.69.56-41.83-.29-83.59-2.6-125.33Z"/><path class="cls-17" d="m427.67,462.07c-.2,5.19-.2,10.3-.24,14.99h145.13c-.06-7.07-.02-15.13-.75-22.94-.01-.13-.02-.26-.01-.4l.88-27.63c0-6.9-5.6-12.5-12.5-12.5h-121.15c-6.9,0-12.5,5.6-12.5,12.5l1.14,35.76c0,.08,0,.15,0,.23Z"/><path class="cls-14" d="m451.53,20c.82,3.79,1.87,7.54,3.19,11.2,8.56,26,37.62,58.98,65.41,37.3,10.64-8.12,19.06-19.79,24.37-32.15,2.36-5.43,3.9-10.87,4.9-16.35h-97.87Z"/><path class="cls-14" d="m614.81,477.06c.09-.04.16-.04.23,0h34.01c.14-6.75-.08-13.5-1.31-20.44-.87-4.91-2.7-7.23-7.84-7.46-7.46-.34-14.86-.61-22.29.4-3.09.42-5,1.97-6.13,4.75-3,7.38-4.85,15-6.02,22.75h9.35Z"/><path class="cls-14" d="m384.96,477.06c.07-.04.14-.04.23,0h9.35c-1.18-7.75-3.03-15.36-6.02-22.75-1.13-2.78-3.04-4.33-6.13-4.75-7.43-1.01-14.83-.74-22.29-.4-5.14.23-6.97,2.55-7.84,7.46-1.23,6.94-1.45,13.69-1.31,20.44h34.01Z"/><path class="cls-4" d="m440.19,211.77c7.72.17,16.42,1.6,23.73.12,4.7-1.04,8.21-4.77,11.52-8.55"/><path class="cls-4" d="m559.5,211.77c-7.72.17-16.42,1.6-23.73.12-4.7-1.04-8.21-4.77-11.52-8.55"/></g><g id="_2_chest_msg_expose_chest"><a xlink:href="install_msg_attach_pads"><rect class="cls-19" x="327.33" y="349.6" width="345.34" height="44.89"/></a><path class="cls-10" d="m387.73,383.49v-23.82h16.16v1.68h-14.48v9.38h10.85v1.69h-10.85v9.4h14.48v1.66h-16.16Z"/><path class="cls-10" d="m405.92,383.49l8.24-11.91-8.24-11.94,2.08.03,7.23,10.55,7.21-10.55h2.04l-8.17,11.91,8.17,11.91h-2.04l-7.21-10.55-7.23,10.55h-2.08Z"/><path class="cls-10" d="m427.18,383.49v-23.82h10.73c1.15,0,2.18.26,3.09.79.91.53,1.59,1.2,2.06,2.03.47.83.81,1.74,1.02,2.75.22,1.01.21,2.01-.02,3.01-.23,1-.57,1.92-1.04,2.74-.46.83-1.15,1.5-2.04,2.02-.9.52-1.92.78-3.07.78h-9.05v9.7h-1.68Zm1.68-11.39h9.05c.84,0,1.59-.2,2.26-.6.66-.4,1.17-.91,1.53-1.54.35-.63.61-1.33.76-2.09.16-.76.16-1.53,0-2.28-.16-.76-.41-1.46-.76-2.09-.35-.64-.87-1.15-1.54-1.54-.67-.39-1.42-.59-2.25-.59h-9.05v10.75Z"/><path class="cls-10" d="m453.25,383.75c-1.75,0-3.25-.62-4.49-1.87-1.25-1.25-1.87-2.74-1.87-4.49l.03-11.49c0-1.77.62-3.27,1.84-4.51,1.23-1.23,2.72-1.85,4.48-1.85h6c1.73,0,3.22.61,4.48,1.83,1.26,1.22,1.88,2.7,1.88,4.43v11.63c0,1.75-.62,3.24-1.87,4.48s-2.74,1.85-4.49,1.85h-6Zm0-1.66h6c1.3,0,2.4-.46,3.31-1.38.91-.92,1.37-2.03,1.37-3.32v-11.43c0-1.34-.46-2.47-1.39-3.38-.92-.91-2.02-1.37-3.3-1.37h-6c-1.27,0-2.37.46-3.28,1.39-.91.92-1.37,2.02-1.37,3.3l-.03,11.49c0,1.3.46,2.4,1.37,3.32.91.92,2.02,1.38,3.31,1.38Z"/><path class="cls-10" d="m468.65,377.19h1.68c0,1.52.45,2.71,1.34,3.57.9.86,2.01,1.3,3.34,1.3h4.29c.3,0,.66-.04,1.1-.13.43-.09,1.01-.27,1.74-.53.72-.27,1.33-.75,1.82-1.44.49-.7.73-1.56.73-2.59,0-1.08-.29-1.99-.86-2.71-.58-.73-1.32-1.27-2.24-1.62-.92-.35-1.94-.66-3.06-.91s-2.24-.5-3.36-.76c-1.11-.26-2.13-.58-3.05-.96-.92-.38-1.67-.97-2.24-1.77-.58-.8-.86-1.77-.86-2.92,0-1.82.61-3.3,1.83-4.44,1.22-1.15,2.62-1.72,4.18-1.72h4.29c1.79,0,3.3.6,4.53,1.8,1.22,1.2,1.84,2.78,1.84,4.73h-1.66c0-1.52-.45-2.7-1.35-3.56-.9-.86-2.01-1.29-3.35-1.29h-4.29c-1.09,0-2.08.41-2.99,1.22-.91.81-1.36,1.87-1.36,3.16,0,.97.29,1.77.87,2.38.58.61,1.33,1.06,2.25,1.35s1.94.54,3.06.75c1.12.22,2.23.47,3.35.76,1.11.29,2.13.68,3.05,1.15.92.48,1.67,1.21,2.24,2.19.58.99.86,2.19.86,3.62,0,1.71-.68,3.12-2.03,4.24-1.36,1.12-3.03,1.68-5.01,1.68h-4.29c-1.79,0-3.3-.6-4.53-1.8s-1.83-2.78-1.83-4.73Z"/><path class="cls-10" d="m489.38,383.49v-23.82h16.16v1.68h-14.48v9.38h10.85v1.69h-10.85v9.4h14.48v1.66h-16.16Z"/><path class="cls-10" d="m524.81,383.75c-1.75,0-3.25-.62-4.49-1.87-1.25-1.25-1.87-2.74-1.87-4.49v-11.49c0-1.75.63-3.25,1.88-4.49,1.25-1.25,2.75-1.87,4.48-1.87h4.29c1.75,0,3.25.62,4.49,1.87s1.87,2.74,1.87,4.49h-1.66c0-1.3-.46-2.4-1.38-3.31-.92-.91-2.03-1.37-3.32-1.37h-4.29c-1.29,0-2.4.46-3.31,1.37s-1.37,2.02-1.37,3.31v11.49c0,1.3.46,2.4,1.38,3.32s2.02,1.38,3.3,1.38h4.29c1.29,0,2.4-.46,3.32-1.38s1.38-2.03,1.38-3.32h1.66c0,1.75-.62,3.25-1.87,4.49-1.25,1.25-2.74,1.87-4.49,1.87h-4.29Z"/><path class="cls-10" d="m538.49,383.49v-23.82h1.68v11.06h13.67v-11.06h1.66v23.82h-1.66v-11.06h-13.67v11.06h-1.68Z"/><path class="cls-10" d="m559.05,383.49v-23.82h16.16v1.68h-14.48v9.38h10.85v1.69h-10.85v9.4h14.48v1.66h-16.16Z"/><path class="cls-10" d="m577.59,377.19h1.68c0,1.52.45,2.71,1.34,3.57.9.86,2.01,1.3,3.34,1.3h4.29c.3,0,.66-.04,1.1-.13.43-.09,1.01-.27,1.74-.53.72-.27,1.33-.75,1.82-1.44.49-.7.73-1.56.73-2.59,0-1.08-.29-1.99-.86-2.71-.58-.73-1.32-1.27-2.24-1.62-.92-.35-1.94-.66-3.06-.91s-2.24-.5-3.36-.76c-1.11-.26-2.13-.58-3.05-.96-.92-.38-1.67-.97-2.24-1.77-.58-.8-.86-1.77-.86-2.92,0-1.82.61-3.3,1.83-4.44,1.22-1.15,2.62-1.72,4.18-1.72h4.29c1.79,0,3.3.6,4.53,1.8,1.22,1.2,1.84,2.78,1.84,4.73h-1.66c0-1.52-.45-2.7-1.35-3.56-.9-.86-2.01-1.29-3.35-1.29h-4.29c-1.09,0-2.08.41-2.99,1.22-.91.81-1.36,1.87-1.36,3.16,0,.97.29,1.77.87,2.38.58.61,1.33,1.06,2.25,1.35s1.94.54,3.06.75c1.12.22,2.23.47,3.35.76,1.11.29,2.13.68,3.05,1.15.92.48,1.67,1.21,2.24,2.19.58.99.86,2.19.86,3.62,0,1.71-.68,3.12-2.03,4.24-1.36,1.12-3.03,1.68-5.01,1.68h-4.29c-1.79,0-3.3-.6-4.53-1.8s-1.83-2.78-1.83-4.73Z"/><path class="cls-10" d="m603.95,383.49v-22.14h-7.66v-1.68h17.01v1.68h-7.66v22.14h-1.69Z"/></g><g id="_2_pads"><path class="cls-7" d="m286.47,40.24c15.71-1.46,31.65-2.91,47.17-.08s30.84,10.54,39.36,23.81c3.26,5.08,5.51,10.9,9.68,15.26,10.56,11.04,30.69,10.1,38.8,23.05,6.74,10.75,2.14,27.12,11.66,35.51"/><path class="cls-7" d="m284.36,33.55c16.59-1.54,33.43-3.08,49.82-.09s32.57,11.13,41.57,25.15c3.45,5.37,5.82,11.51,10.23,16.12,11.16,11.66,32.41,10.67,40.98,24.34,7.12,11.36,2.26,28.64,12.32,37.51"/><line class="cls-9" x1="480.67" y1="216.57" x2="519.33" y2="216.57"/><line class="cls-9" x1="500" y1="242.76" x2="500" y2="190.38"/><rect class="cls-18" x="478.33" y="135.79" width="43.34" height="158.66" rx="15.15" ry="15.15"/><rect class="cls-14" x="473.81" y="197.24" width="52.38" height="38.66" rx="19.33" ry="19.33" transform="translate(716.57 -283.43) rotate(90)"/><line class="cls-8" x1="480.67" y1="216.57" x2="519.33" y2="216.57"/><line class="cls-8" x1="500" y1="242.76" x2="500" y2="190.38"/><path class="cls-14" d="m574.28,236.01c-.92-1.34-6.43-1.09-10.14-1.12-8.18,0-17,0-25.15,0-1.52,0-2.92,0-4.39,0-5.45.06-8.92-.37-10.53,3.48-.15.36-.28.76-.38,1.19-.82,4.72-.27,19.62-.43,24.55.1,5.58-.26,13.16.25,17.96.62,4.43,4.46,6.67,7.56,9.26,1.97,1.79,5.52,3.33,9.56,3.11,5.41.02,11.04,0,16.51,0,4.8-.16,11.03.53,14.85-.76,3.5-1.3,3.51-3.97,3.54-8.84,0-2.25,0-4.4,0-6.72,0-7.35,0-25.26,0-32.61-.02-3.45.14-8.56-1.19-9.45l-.06-.06Z"/><path class="cls-14" d="m425.38,137.63c-2.42,4.36-2.76,9.81-3.75,14.81-1.4,7.86-2.65,28.17-1.34,35.52,1.1,8,9.98,5.91,16.12,6.27,8.22,0,16.55,0,24.59,0,8.11-.19,13.11.71,15.07-6.34.78-3.34.68-7.63.71-11.36-.02-6.48.06-23.52-.05-29.78.07-13.16-5.88-12.85-17-12.76-7.89.01-16.28-.03-23.8.02-5.21.18-8.22.26-10.49,3.51l-.06.1Z"/></g><g id="_2_chest_pads_indicator"><circle class="cls-19" cx="549.4" cy="264.69" r="6.5"/><circle class="cls-19" cx="448.26" cy="164.51" r="6.5"/></g><g id="_2_pads_msg_attach_pads"><a xlink:href="install_msg_attach_pads"><rect class="cls-19" x="327.33" y="349.6" width="345.34" height="44.89"/></a><path class="cls-10" d="m401.93,383.49h-1.81l9.57-23.82h1.05l9.53,23.82h-1.81l-2.34-5.81h-11.88l-2.31,5.81Zm2.96-7.49h10.61l-5.3-13.39-5.32,13.39Z"/><path class="cls-10" d="m425.53,383.49v-22.14h-7.66v-1.68h17.01v1.68h-7.66v22.14h-1.69Z"/><path class="cls-10" d="m443.89,383.49v-22.14h-7.66v-1.68h17.01v1.68h-7.66v22.14h-1.69Z"/><path class="cls-10" d="m452.64,383.49h-1.81l9.57-23.82h1.05l9.53,23.82h-1.81l-2.34-5.81h-11.88l-2.31,5.81Zm2.96-7.49h10.61l-5.3-13.39-5.32,13.39Z"/><path class="cls-10" d="m478.35,383.75c-1.75,0-3.25-.62-4.49-1.87-1.25-1.25-1.87-2.74-1.87-4.49v-11.49c0-1.75.63-3.25,1.88-4.49,1.25-1.25,2.75-1.87,4.48-1.87h4.29c1.75,0,3.25.62,4.49,1.87s1.87,2.74,1.87,4.49h-1.66c0-1.3-.46-2.4-1.38-3.31-.92-.91-2.03-1.37-3.32-1.37h-4.29c-1.29,0-2.4.46-3.31,1.37s-1.37,2.02-1.37,3.31v11.49c0,1.3.46,2.4,1.38,3.32s2.02,1.38,3.3,1.38h4.29c1.29,0,2.4-.46,3.32-1.38s1.38-2.03,1.38-3.32h1.66c0,1.75-.62,3.25-1.87,4.49-1.25,1.25-2.74,1.87-4.49,1.87h-4.29Z"/><path class="cls-10" d="m492.04,383.49v-23.82h1.68v11.06h13.67v-11.06h1.66v23.82h-1.66v-11.06h-13.67v11.06h-1.68Z"/><path class="cls-10" d="m522.63,383.49v-23.82h10.73c1.15,0,2.18.26,3.09.79.91.53,1.59,1.2,2.06,2.03.47.83.81,1.74,1.02,2.75.22,1.01.21,2.01-.02,3.01-.23,1-.57,1.92-1.04,2.74-.46.83-1.15,1.5-2.04,2.02-.9.52-1.92.78-3.07.78h-9.05v9.7h-1.68Zm1.68-11.39h9.05c.84,0,1.59-.2,2.26-.6.66-.4,1.17-.91,1.53-1.54.35-.63.61-1.33.76-2.09.16-.76.16-1.53,0-2.28-.16-.76-.41-1.46-.76-2.09-.35-.64-.87-1.15-1.54-1.54-.67-.39-1.42-.59-2.25-.59h-9.05v10.75Z"/><path class="cls-10" d="m540.42,383.49h-1.81l9.57-23.82h1.05l9.53,23.82h-1.81l-2.34-5.81h-11.88l-2.31,5.81Zm2.96-7.49h10.61l-5.3-13.39-5.32,13.39Z"/><path class="cls-10" d="m561.46,383.49v-23.82h10.65c1.75,0,3.24.62,4.48,1.86,1.24,1.24,1.86,2.72,1.89,4.43v11.23c-.02,1.73-.65,3.21-1.89,4.44-1.23,1.23-2.73,1.85-4.48,1.85h-10.65Zm1.68-1.66h8.97c1.27,0,2.38-.46,3.3-1.38.93-.92,1.4-2.03,1.4-3.32v-11.09c0-1.3-.46-2.4-1.4-3.31-.93-.91-2.03-1.37-3.3-1.37h-8.97v20.48Z"/><path class="cls-10" d="m581.51,377.19h1.68c0,1.52.45,2.71,1.34,3.57.9.86,2.01,1.3,3.34,1.3h4.29c.3,0,.66-.04,1.1-.13.43-.09,1.01-.27,1.74-.53.72-.27,1.33-.75,1.82-1.44.49-.7.73-1.56.73-2.59,0-1.08-.29-1.99-.86-2.71-.58-.73-1.32-1.27-2.24-1.62-.92-.35-1.94-.66-3.06-.91s-2.24-.5-3.36-.76c-1.11-.26-2.13-.58-3.05-.96-.92-.38-1.67-.97-2.24-1.77-.58-.8-.86-1.77-.86-2.92,0-1.82.61-3.3,1.83-4.44,1.22-1.15,2.62-1.72,4.18-1.72h4.29c1.79,0,3.3.6,4.53,1.8,1.22,1.2,1.84,2.78,1.84,4.73h-1.66c0-1.52-.45-2.7-1.35-3.56-.9-.86-2.01-1.29-3.35-1.29h-4.29c-1.09,0-2.08.41-2.99,1.22-.91.81-1.36,1.87-1.36,3.16,0,.97.29,1.77.87,2.38.58.61,1.33,1.06,2.25,1.35s1.94.54,3.06.75c1.12.22,2.23.47,3.35.76,1.11.29,2.13.68,3.05,1.15.92.48,1.67,1.21,2.24,2.19.58.99.86,2.19.86,3.62,0,1.71-.68,3.12-2.03,4.24-1.36,1.12-3.03,1.68-5.01,1.68h-4.29c-1.79,0-3.3-.6-4.53-1.8s-1.83-2.78-1.83-4.73Z"/></g></svg>