<?xml version="1.0" encoding="UTF-8"?><svg xmlns="http://www.w3.org/2000/svg" xmlns:xlink="http://www.w3.org/1999/xlink" viewBox="0 0 1000 500"><defs><style>.cls-1,.cls-2,.cls-3,.cls-4,.cls-5,.cls-6{font-family:Abel-Regular, Abel;}.cls-1,.cls-3,.cls-4{font-size:34.02px;}.cls-7{letter-spacing:-.02em;}.cls-2{fill:#2d425f;font-size:25.07px;}.cls-3{fill:#416184;}.cls-4,.cls-8{fill:#de4c33;}.cls-5{fill:#856743;font-size:28.35px;}.cls-6{fill:#9b9c9d;font-size:68.67px;}.cls-9{fill:none;stroke:#385472;stroke-miterlimit:10;}.cls-10{letter-spacing:-.02em;}.cls-11,.cls-12,.cls-13,.cls-14,.cls-15,.cls-16,.cls-8,.cls-17{stroke-width:0px;}.cls-12{fill:#513148;}.cls-13{fill:#a2a3a4;}.cls-14{fill:#383d42;}.cls-15{fill:#385472;}.cls-16{fill:#0f1a23;}.cls-17{fill:#fff;}</style></defs><g id="background"><rect class="cls-11" width="1000" height="503.1"/></g><g id="_1_sleepy"><path class="cls-16" d="m690.99,438.52c-.09-4.03.28-7.71-2.02-11.11-2.03-2.84-6.5-3.24-10.05-3.8-21.41-3.28-42.82-6.62-64.31-9.45-21.04-3.08-42.1-6.19-63.17-8.54-7.9-.99-15.98-1.6-23.84-3.08-.32-.09-1.05-.36-1.12-.94v-.92c0-.47.38-.87.86-.86,1.77.03,3.69.21,5.54.4,9.89,1.07,19.92,2.06,29.88,3.44,40.69,5.13,81.36,12.11,122.03,17.26.05,0,.1,0,.16,0,7.2-.14,5.85-9.49,6.05-14.6.08-8.43-.65-14.03-9.43-15.15-14.21-2.18-28.64-3.91-42.82-6.47-14.27-2.09-28.78-3.85-43.05-6.09-19.43-2.77-38.95-5.13-58.39-7.67-9.53-.91-19.1-1.52-28.63-2.33-13.97-1.15-14.71,8.57-14.29,19.91.17,11.16,0,22.33-.26,33.49-.04,6.17-.54,13.79,4.36,18.25,6.01,5,15.69,4.18,23.3,4.74.02,0,.03,0,.05,0,15.75.14,31.37-.03,47.11,1.46,36.26,3.24,72.44,6.15,108.72,8.85,5.31.32,12.05.84,12.84-5.58.61-2.86.49-7.08.5-11.23Z"/><path class="cls-13" d="m507.62,461.95c-.88-.16-1.78-.28-2.67-.33-1.29-.07-2.59-.15-3.88-.24-1.61-.11-3.41-.23-5.28-.36-3.38-.25-6.76-.49-10.13-.7-.93-.06-1.79-.11-2.55-.16,0,0-.01,0-.02,0-1-.05-1.81-.27-1.75-.92.04-.44.6-.66,1.54-.64,6.11.19,14.71.62,18.8.6,1.14,0,2.47-.13,2.53-1.58.05-1.23-1.17-1.49-2.18-1.66-.88-.16-1.78-.28-2.67-.33-5.12-.27-17.73-1.25-22.86-1.51-1.71-.14-7.45.09-5.46-1,3.6-1.09,7.21-1.68,10.79-2.45,1.52-.32,3.45-.89,3.16-2.84-.25-1.65-2.16-1.31-3.43-1.31-8.99,0-17.89.72-26.5,3.6-1.97.66-3.13,1.92-3.56,4.03-1.02,5.1-1.16,10.23-1.25,15.4-.06,3.57,1.46,4.94,4.82,5.75,9.92,2.41,19.47,1.75,29.52,2.11.39.01.75.02,1.09.02,4.77.19,9.66.38,12.45.37,1.14,0,2.47-.13,2.53-1.58.05-1.23-1.17-1.49-2.18-1.66-.88-.16-1.78-.28-2.67-.33-1.89-.1-4.8-.29-7.97-.51-.9-.07-1.83-.14-2.86-.21-.92-.06-1.73-.49-1.79-1.02-.09-.87.55-1.5,1.54-1.45.03,0,.06,0,.09,0,.27.01.48.02.67.01,6.07.15,16.15.68,20.68.65,1.14,0,2.47-.13,2.53-1.58.05-1.23-1.17-1.49-2.18-1.66-.88-.16-1.78-.28-2.67-.33l-12.34-.73c-7.7-.32-8.54-.54-8.89-1.33-.45-1.75,4.53-1.48,5.22-1.51,6.13.18,15.2.64,19.43.62,1.14,0,2.47-.13,2.53-1.58.05-1.23-1.17-1.49-2.18-1.66Z"/><path class="cls-9" d="m489.36,398.53v-.14c-.05-5.08.04-12.6-.01-17.25.22-9.23-.9-14.49-11.52-14.23-21.35-.76-42.72-.8-64.06-.46-23.94-.19-47.89,1.25-71.43,5.86-9.74,1.95-18.98,5.53-27.51,10.62-.87.42-1.68.9-2.41,1.45-4.87,5.11-6.46,11.64-7.79,18.43-.62,3.16-1.15,6.34-1.65,9.52-.4,2.52-.85,5.03-1.3,7.54-.37,2.06-.91,4.08-.95,6.18-.03.25-.09.48-.17.68-.63,9.28,3.85,13.88,11.14,18.99,5.86,3.88,12.26,6.6,18.47,9.62,3.66,1.81,8.32,2.74,12.42,4.08,22.87,7.21,46.76,10.38,70.46,13.38,9.35.76,18.64.29,27.9,2.14,4.34.74,5.06-2.49,5.31-6.12.5-5.65.92-10.17,1.45-15.78.45-3.18.14-6.17-3.49-6.91-9.48-2.64-18.66-6.23-28.34-7.96-22.5-4.61-44.17-12.66-66.19-19.06-3.68-1.12-7.35-2.32-11.01-3.42-1.5-.87-14.28-2.49-11.62-5.19.71-.33,1.4-.22,2.19-.11,2.62.46,6.82,1.25,9.22,1.69.14.03.27.06.41.09,30.29,8.16,60.1,18.79,90.94,24.77.13.03.26.06.39.09,4.32,1.21,8.69,2.61,13.07,3.84,2.26.64,4.58,1.07,6.93,1.23,7.94.56,17.04.55,24.54,1.02,11.04.55,12.72-.32,14.14-11.79,1.14-10.86.28-21.92.47-32.8Z"/><path class="cls-13" d="m307.05,384.04c-2.82,0-5.91.05-8.65.18-2.26.27-3.73-.04-3.2-2.84.52-4.5,1.27-9.19.81-13.74-.99-7.12-10.17-5.81-15.46-5.33-3.16.39-2.81,4.23-3.32,6.67-.38,1.91-1.85,2.1-2.28.19-.35-3.24-.36-8.4-4.44-8.65-2.13-.22-4.29,1.08-6.39.46h0c-4.93-1.95-6.34-9.22-12.53-4.55-4.34,2.59-8.28,6.69-13.26,7.82-1.81.37-3.73.24-5.58.22-5.11-.13-9.66,1.52-14.41,4.07-1.77.68-3.53,2.87-5.33,2.61h0c-1.12-.41-2.39-2.26-3.93-1.36-14.2,11.83-13.03,38.51-2.15,52.32,7.36,8.9,15.77,13.04,30.56,13.76,6.59.47,12.27-.91,18.43-4.77,3.11-2.03,6.39-4.38,8.74-7.01,3.03-2.93,6.42-7.8,11.04-6.24l20.53,5.07c.94.23,1.89-.37,2.07-1.33s.39-2,.57-3c.5-2.83,1.01-5.65,1.45-8.49.61-3.86,1.27-7.71,2.13-11.53.78-3.46,1.69-6.89,3.33-10.06.57-1.11,1.23-2.15,1.95-3.13.41-.56.02-1.36-.68-1.36Z"/></g><g id="_1_helper_cpr"><a xlink:href="cpr_group"><path class="cls-13" d="m377.96,312.17c2.55,2.76,4.67,5.75,6.93,8.63.96,1.23,2.31,2.71,3.93,1.6,1.37-.94.23-2.51-.33-3.65-3.94-8.08-8.48-15.77-14.83-22.25-1.46-1.49-3.09-1.98-5.18-1.43-5.03,1.31-9.71,3.44-14.4,5.62-3.23,1.5-3.8,3.48-3.06,6.85,2.17,9.97,6.95,18.28,11.02,27.47.16.36.31.68.46.99,1.92,4.37,3.88,8.85,5.12,11.35.5,1.02,1.2,2.16,2.52,1.58,1.12-.49.82-1.7.54-2.68-.25-.86-.52-1.72-.87-2.55-.74-1.74-1.84-4.44-3.03-7.4-.33-.84-.68-1.7-1.07-2.66-.34-.85-.32-1.77.14-2.06.74-.46,1.59-.16,1.98.75.01.03.03.06.04.08.1.25.2.44.28.61,2.52,5.53,6.46,14.82,8.46,18.88.5,1.02,1.2,2.16,2.52,1.58,1.12-.49.82-1.7.54-2.68-.25-.86-.52-1.72-.87-2.55l-4.74-11.42c-3.08-7.07-3.26-7.92-2.69-8.57,1.37-1.17,3.32,3.42,3.65,4.03,2.52,5.59,6.07,13.95,7.95,17.74.5,1.02,1.2,2.16,2.52,1.58,1.12-.49.82-1.7.54-2.68-.25-.86-.52-1.72-.87-2.55-.51-1.19-1-2.4-1.49-3.6-.61-1.49-1.29-3.17-1.99-4.91-1.26-3.15-2.52-6.29-3.81-9.42-.35-.87-.68-1.66-.97-2.36,0,0,0-.01,0-.02-.39-.92-.55-1.75.06-1.97.42-.15.86.25,1.25,1.1,2.5,5.57,5.88,13.5,7.69,17.17.5,1.02,1.2,2.16,2.52,1.58,1.12-.49.82-1.7.54-2.68-.25-.86-.52-1.72-.87-2.55-2-4.72-6.64-16.49-8.65-21.21-.62-1.6-3.34-6.66-1.49-5.35Z"/><path class="cls-16" d="m441.75,254.79c-1.04-3.26-1.96-10.76-5.41-11.52-3.87.3-6.01,12.08-7.54,15.51-3.38,9.46-6.73,18.93-10.09,28.39-2.33,6.21-4.86,12.36-7.48,18.46-2.07,4.72-4.57,9.57-4.72,14.8-.2,4.92,1.55,9.72,3.41,14.21,3.9,9.47,11,18.51,21.96,18.65h.16c6.49.2,13.45-2.36,17.51-7.4,7.91-10.02,2.93-29.33,1.51-41.25-2.39-16.72-5.41-33.36-9.31-49.85Z"/><path class="cls-16" d="m333.25,287.18c-3.36-9.46-6.71-18.93-10.09-28.39-1.53-3.43-3.67-15.22-7.54-15.51-3.45.75-4.37,8.26-5.41,11.52-3.9,16.49-6.92,33.13-9.31,49.85-1.42,11.92-6.4,31.23,1.51,41.25,4.05,5.04,11.01,7.61,17.51,7.41h.16c10.96-.14,18.06-9.19,21.96-18.65,1.86-4.5,3.61-9.29,3.41-14.21-.14-5.22-2.65-10.07-4.72-14.8-2.61-6.1-5.15-12.24-7.48-18.46Z"/><path class="cls-13" d="m385.55,100.55c5.69-4.34,10.19-10.57,13.02-17.18,4.04-9.31,3.59-18.64,3.57-28.77-.03-2.66-.1-5.42-.42-8.02l-.02-.19c-3.61-28.85-51.77-27.82-53.89,1.05-.6,10.98-.99,22.65,2.79,33.16,4.57,13.89,20.1,31.51,34.95,19.93Z"/><path class="cls-13" d="m397.11,321.81c2.39-5.2,4.55-10.45,5.82-16.28.74-3.38.17-5.35-3.06-6.85-4.69-2.18-9.37-4.31-14.4-5.62-2.09-.55-3.73-.05-5.18,1.43-.56.57-1.09,1.17-1.63,1.76,0,0,0,0,0,0-.98,1.43,4.04,6.17,6.18,9.37.73,1.08,1.44,2.16,2.11,3.27.44.67.87,1.35,1.31,2.02,2.38,3.57,4.54,7.61,7.22,11.07.44.57,1.33.48,1.63-.17Z"/><path class="cls-15" d="m449.21,111.33l-.14-.14c-8.96-8.25-19.86-14.33-30.71-19.68-7.59-3.6-14.11-4.8-19.24,3.16-7.56,10.95-20.73,24.48-34.28,14.15-5.08-3.52-9.34-7.9-12.65-12.68-5.86-9.53-12.73-8.23-21.63-3.46-1.96,1.04-3.92,2.09-5.88,3.15h0c-7.53,4.09-14.99,8.45-21.49,14-7.13,5.87-11.45,14.37-10.17,23.78,2,13.87,5.48,27.54,9.53,40.93,7.9,27.91,17.88,55.09,26.94,82.65,3.26,10,7.38,19.72,11.03,29.56.77,2.08,1.56,4.27,2.64,6.19,3.04,5.94,8.79,4.45,13.54,1.93,4.22-2.05,8.79-3.97,10.21-7.47,1.23-2.67.41-6.32-.47-9.16-1.08-3.5-2.27-7.02-3.12-10.55-1.55-6.13-2.39-12.45-3.83-18.59-1.51-6.55-3.72-12.9-5.2-19.45-6.02-26.01-12.95-51.87-19.42-77.76-1.08-5-3.72-10-3.02-15.14.45-1.52,1.13-1.78,1.85-1.37h0c.17.09.33.22.5.38.01.01.02.02.03.03.16.16.33.34.49.54,0,.01.02.02.03.04.16.2.32.42.47.66,0,0,.01.02.02.02.16.24.3.49.45.74.01.02.02.04.03.06.14.25.28.51.4.77,0,0,0,.02.01.03.12.25.24.5.34.75,0,.01.01.03.02.04.1.24.19.47.27.68,0,.02.01.03.02.05.07.21.14.41.18.59.76,2.5,1.51,5.01,2.24,7.51.17.59.34,1.17.51,1.76.56,1.92,1.11,3.85,1.66,5.78.19.66.37,1.32.55,1.98.52,1.86,1.04,3.73,1.56,5.6.13.48.26.96.39,1.44.56,2.06,1.12,4.12,1.68,6.19,0,0,0,.01,0,.02,2.72,10.12,5.36,20.28,8.08,30.43,1.45,5.06,2.78,12.27,7.74,14.39,3.18.98,6.46.54,9.88.51,2.62-.02,6.91-.05,9.53-.07,5.09-.07,7.86.17,10.13-1.9.9-.82,1.63-1.79,2.29-2.83,1.01-1.59,1.76-3.33,2.29-5.14,6.23-21.2,12.18-42.64,18.35-63.99.56-1.93,1.42-4.38,2.47-5.78.13-.19.26-.35.39-.49.02-.03.05-.05.07-.07.1-.11.2-.21.3-.29.02-.01.03-.02.05-.03.1-.08.2-.16.3-.21,0,0,0,0,.01,0,.1-.06.2-.09.3-.12h0c1.05-.24,1.54,1.52,1.48,3.09,0,2.84-.93,5.8-1.69,8.58-5.42,20.05-11.54,39.95-15.96,60.26-3.12,13.09-6.93,26.12-10.11,39.21-2.28,9.16-4.37,17.84-6.56,27.26-.95,4.07-1.84,9.06.73,12.49,2.09,2.98,6.34,4.61,10.26,6.3,4.84,2.21,10.61,3.57,13.6-2.32,11.21-24.96,18.47-50.25,26.82-76.55,6.91-21.26,13.09-42.7,18.52-64.37,3.26-13.67,5.95-27.36-5.57-38.07Z"/><circle class="cls-8" cx="383.54" cy="383.55" r="6.5"/><a xlink:href="cpr_msg_good_compresson"><rect class="cls-8" x="548.01" y="227.55" width="345.34" height="44.89"/><text class="cls-1" transform="translate(584.82 261.44)"><tspan x="0" y="0">GOOD COMPRESSION</tspan></text></a><text class="cls-4" transform="translate(37.94 298.32)"><tspan x="0" y="0">DEPTH</tspan></text><a xlink:href="cpr_time_remaining"><text class="cls-3" transform="translate(39 88.72)"><tspan x="0" y="0">02:</tspan><tspan class="cls-10" x="41.61" y="0">1</tspan><tspan x="58.65" y="0">9</tspan></text></a><text class="cls-2" transform="translate(39 58.82)"><tspan x="0" y="0">CPR</tspan></text><rect class="cls-14" x="65.53" y="318.88" width="32" height="4"/><rect class="cls-12" x="65.53" y="448.88" width="32" height="4"/><rect class="cls-12" x="65.53" y="435.88" width="32" height="4"/><rect class="cls-12" x="65.53" y="422.88" width="32" height="4"/><rect class="cls-14" x="65.53" y="409.88" width="32" height="4"/><rect class="cls-14" x="65.53" y="396.88" width="32" height="4"/><rect class="cls-14" x="65.53" y="383.88" width="32" height="4"/><rect class="cls-14" x="65.53" y="370.88" width="32" height="4"/><rect class="cls-14" x="65.53" y="357.88" width="32" height="4"/><rect class="cls-14" x="65.53" y="344.88" width="32" height="4"/><rect class="cls-14" x="65.53" y="331.88" width="32" height="4"/><rect class="cls-17" x="65.53" y="318.88" width="32" height="4"/><rect class="cls-8" x="65.53" y="448.88" width="32" height="4"/><rect class="cls-8" x="65.53" y="435.88" width="32" height="4"/><rect class="cls-8" x="65.53" y="422.88" width="32" height="4"/><rect class="cls-17" x="65.53" y="409.88" width="32" height="4"/><rect class="cls-17" x="65.53" y="396.88" width="32" height="4"/><rect class="cls-17" x="65.53" y="383.88" width="32" height="4"/><rect class="cls-17" x="65.53" y="370.88" width="32" height="4"/><rect class="cls-17" x="65.53" y="357.88" width="32" height="4"/><rect class="cls-17" x="65.53" y="344.88" width="32" height="4"/><rect class="cls-17" x="65.53" y="331.88" width="32" height="4"/><a xlink:href="cpr_msg_push_harder"><rect class="cls-8" x="548.01" y="227.55" width="345.34" height="44.89"/><text class="cls-1" transform="translate(627.62 261.44)"><tspan x="0" y="0">PUSH HARDER</tspan></text></a></a></g><g id="HUD"><a xlink:href="time"><text class="cls-5" transform="translate(891.37 462.16)"><tspan x="0" y="0">01:</tspan><tspan class="cls-7" x="35.32" y="0">4</tspan><tspan x="49.04" y="0">7</tspan></text></a><text class="cls-5" transform="translate(866.68 56.68)"><tspan x="0" y="0">SHOCKS</tspan></text><a xlink:href="cpr_shocks_number"><text class="cls-6" transform="translate(876.99 120.85)"><tspan x="0" y="0">02</tspan></text></a></g></svg>